<svg width="193" height="216" viewBox="0 0 193 216" fill="none" xmlns="http://www.w3.org/2000/svg">
<path d="M90.2891 85.7878C94.5103 88.8574 102.854 96.9702 102.457 104.865" stroke="#F0CDBC" stroke-width="3.02087" stroke-linecap="round"/>
<path d="M73.8831 93.7776C71.1218 92.4196 65.9959 87.5934 67.5828 79.1527C68.5542 73.9855 62.6224 69.3315 54.182 69.9854M81.8873 111.482C79.8558 113.216 81.145 116.008 82.2 116.76C85.5645 118.517 108.207 152.172 70.7349 154.391C13.4822 157.782 10.5085 146.845 8.30859 142.656C6.54385 139.295 6.4301 129.29 24.5986 94.7403C33.8694 77.1105 45.3875 70.6667 54.182 69.9854M54.182 69.9854C48.7679 58.2697 42.0557 30.0941 57.5243 9.49612C58.1173 8.70648 59.0128 8.19836 59.9995 8.15737C70.7338 7.71148 94.1966 14.2652 113.61 44.5643" stroke="#F0CDBC" stroke-width="3.77609" stroke-linecap="round"/>
<path d="M102.335 84.8991C104.667 82.1074 107.924 73.3291 102.297 60.5502C95.4808 45.0699 160.86 29.0198 188.715 61.7978C190.391 63.7689 190.674 66.5266 189.642 68.8982C174.604 103.428 142.212 153.802 120.582 104.806C118.962 101.315 114.81 94.8774 111.157 97.05" stroke="#F0CDBC" stroke-width="3.77609" stroke-linecap="round"/>
<path d="M60.18 155.658C63.3319 167.589 71.942 190.206 81.1672 185.226C92.6987 179 107.191 145.701 101.447 120.285" stroke="#F0CDBC" stroke-width="3.77609" stroke-linecap="round"/>
<path d="M102.917 129.009C119.351 138.577 155.976 159.306 172.852 147.844C179.736 143.169 164.764 118.574 161.201 116.257" stroke="#F0CDBC" stroke-width="3.77609" stroke-linecap="round"/>
<path d="M100.775 89.5354C97.5598 85.7551 91.918 80.2787 87.0327 78.2863M87.0327 78.2863C84.0492 77.0695 81.3479 77.152 79.6537 79.7136C74.0682 88.1588 84.246 90.1763 91.1784 91.6252C98.1107 93.0742 94.4852 108.926 83.7136 96.8852C75.0963 87.2527 73.6081 90.3837 73.9412 93.1532C77.9341 116.043 86.5656 112.691 90.3822 108.155C93.6028 104.019 99.7028 97.4089 98.3379 104.049C96.6319 112.349 89.5024 113.278 87.7435 113.551C86.3364 113.77 87.6863 114.964 88.5371 115.533C104.603 127.632 107.493 112.579 106.929 103.54C109.77 100.202 113.201 94.6416 106.036 97.1559C105.386 97.3838 104.737 96.7208 104.999 96.0846C107.546 89.9013 105.424 90.6415 99.3501 82.6041C92.8504 74.0037 89.3698 76.0267 87.0327 78.2863Z" stroke="#F0CDBC" stroke-width="3.02087" stroke-linecap="round"/>
<path d="M102.649 133.704C103.435 154.73 108.937 201.106 138.806 206.608C164.883 211.412 191.026 213.314 192.86 216C193.515 213.249 191.284 209.627 188.454 207.426C184.917 204.675 141.95 199.534 134.287 196.193C124.303 191.841 113.653 180.473 108.937 133.704" stroke="#F0CDBC" stroke-width="3.77609" stroke-linecap="round"/>
</svg>
