<svg width="1483" height="794" viewBox="0 0 1483 794" fill="none" xmlns="http://www.w3.org/2000/svg">
<path d="M679.936 620.029C634.086 656.709 601.686 659.155 569.896 754.523" stroke="#F0CDBC" stroke-width="5" stroke-linecap="round"/>
<path d="M305.106 561.903C292.208 604.609 277.239 680.879 317.375 690.719C357.511 700.558 395.995 684.429 427.466 640.369" stroke="#F0CDBC" stroke-width="5"/>
<path d="M361.186 541.764C311.771 573.003 208.37 592.676 193.096 437.122C192.829 434.404 193.769 431.53 195.609 429.511C281.623 335.144 350.894 398.865 374.985 443.08" stroke="#F0CDBC" stroke-width="5"/>
<path d="M378.537 539.905C381.117 605.827 460.111 711.355 545.237 629.668C569.112 606.759 565.842 583.083 557.5 555.606M443.293 477.937C491.318 479.796 547.088 521.314 557.5 555.606M557.5 555.606C588.093 498.034 616.87 393.026 431.829 449.432" stroke="#F0CDBC" stroke-width="5"/>
<path d="M703.559 497.294C702.876 489.505 697.614 485.558 678.266 481.295C670.32 479.545 660.958 471.112 655.167 457.583M811.896 466.577C808.43 448.019 808.142 453.312 811.896 439.895C834.031 360.783 749.59 326.76 706.96 324.301C646.409 380.998 643.332 429.934 655.167 457.583M655.167 457.583C626.522 460.841 574.396 480.968 595.055 535.403C590.273 557.538 600.22 599.349 678.266 589.511" stroke="#F0CDBC" stroke-width="5"/>
<path d="M711.468 518.597C679.058 555.159 642.997 640.555 751.826 694.88C756.12 697.023 761.166 697.478 765.662 695.8C803.908 681.52 870.34 631.572 826.089 521.379M763.359 339.788C793.269 322.478 850.389 312.155 839.589 409.348" stroke="#F0CDBC" stroke-width="5"/>
<path d="M924.147 523.929C905.179 533.74 877.735 536.561 866.077 518.015C864.868 516.092 863.463 513.954 861.922 511.631M969.933 466.369C958.486 384.61 888.162 362.373 842.232 407.402C811.255 437.771 844.889 485.965 861.922 511.631M861.922 511.631C834.253 559.64 815.947 644.614 964.073 600.443" stroke="#F0CDBC" stroke-width="5"/>
<path d="M948.348 552.054C944.223 571.569 942.462 592.065 972.164 604.251C1006.83 618.471 1082.14 638.084 1088.51 575.945M1000.25 449.364C1024.55 468.659 1027.38 460.504 1039.75 460.504C1045.55 460.504 1055.75 465.209 1065.38 478.392M906.954 384.823C912.507 373.716 931.801 352.551 964.548 356.74C995.127 360.651 1004.57 396.408 1005.81 417.274C1005.98 420.044 1005.37 422.78 1004.4 425.38C1001.39 433.456 997.868 446.135 1000.25 452.888C1001.32 455.927 979.847 464.426 976.801 473.564M1065.38 478.392C1076.3 493.337 1086.5 519.178 1088.78 561.412C1089.06 566.691 1088.96 571.525 1088.51 575.945M1065.38 478.392C1098.76 497.5 1150.13 543.763 1088.51 575.945M664.885 591.443C664.885 596.271 665.934 605.385 658.795 612.283M658.795 737.778C658.795 797.802 578.323 790.546 560.514 790.546C549.264 790.546 541.112 783.144 536.773 777.107C534.813 774.381 534.213 770.978 534.419 767.627C535.199 754.939 536.356 743.366 537.84 732.809M682.485 627.115C657.2 666.335 624.564 747.946 696.308 760.622C747.081 769.593 758.679 717.806 753.622 695.891M658.795 612.283C656.229 614.762 652.603 617.096 647.581 619.049C643.351 620.694 637.322 621.02 630.216 621.444M658.795 612.283C637.213 604.433 587.342 596.41 560.514 627.115C557.084 631.04 553.889 634.69 550.917 638.102M537.84 732.809C531.374 726.571 518.178 710.453 517.128 695.891C515.949 679.55 524.826 668.052 550.917 638.102M537.84 732.809C552.764 626.652 600.747 623.205 630.216 621.444M550.917 638.102C567.824 629.448 602.763 606.032 630.216 621.444" stroke="#F0CDBC" stroke-width="5"/>
<path d="M562.597 570.564C569.897 567.644 589.393 563.253 596.734 562.586M564.707 540.694C572.771 538.608 591.683 534.412 594.019 534.746M1113.67 556.068C1137.04 551.121 1170.96 546.533 1200.37 546.533C1203.48 534.969 1217.1 512.086 1247.19 507.235C1251.43 506.553 1255.48 504.948 1258.91 502.386C1278.11 488.082 1309.55 474.702 1316.54 510.664C1317.02 513.124 1316.88 515.673 1316.14 518.069C1309.89 538.373 1291.72 562.428 1259.99 523.397C1257.5 520.327 1254.28 517.685 1250.35 517.283C1238.92 516.116 1222.5 521.735 1218.3 551.121C1246.25 556.683 1305.14 571.059 1317.15 584.072C1329.17 597.086 1402.8 602.007 1438.11 602.842C1451.46 603.676 1478.49 610.683 1479.82 632.038C1478.99 633.707 1469.48 632.873 1438.11 616.189C1402.26 617.794 1327.11 614.92 1303.06 591.511C1301.23 589.731 1299.36 588.002 1297.09 586.835C1267.51 571.632 1194.54 552.817 1088.39 577.831" stroke="#F0CDBC" stroke-width="5"/>
<path d="M343.161 487.347C352.447 475.866 376.582 453.471 398.83 455.737" stroke="#F0CDBC" stroke-width="5" stroke-linecap="round"/>
<path d="M351.115 458.892C338.906 468.239 321.063 484.825 314.121 499.624M314.121 499.624C309.881 508.662 309.706 517.034 317.363 522.684C342.607 541.311 350.469 510.139 356.055 488.919C361.642 467.699 410.115 481.439 371.143 512.854C339.966 537.986 349.418 543.089 358.041 542.499C429.503 533.786 420.506 506.544 407.075 494.012C394.792 483.389 375.308 463.462 395.637 468.742C421.048 475.341 422.789 497.55 423.355 503.036C423.807 507.425 427.715 503.438 429.613 500.895C469.607 453.107 423.488 441.771 395.429 442.076C385.552 432.754 368.893 421.254 375.533 443.826C376.134 445.871 373.98 447.776 372.053 446.863C353.325 437.999 355.278 444.681 329.441 462.198C301.795 480.941 307.501 492.033 314.121 499.624Z" stroke="#F0CDBC" stroke-width="5" stroke-linecap="round"/>
<path d="M961.867 488.541C969.12 496.136 982.72 515.199 979.096 530.685" stroke="#F0CDBC" stroke-width="5" stroke-linecap="round"/>
<path d="M981.563 497.561C976.081 488.098 966.006 474.003 956.199 467.758M956.199 467.758C950.21 463.945 944.321 463.06 939.638 467.946C924.201 484.056 945.474 492.44 959.933 498.312C974.393 504.184 960.288 537.125 941.676 506.776C926.787 482.497 922.327 488.699 921.958 494.835C921.599 546.036 941.633 542.17 951.696 533.837C960.307 526.14 976.137 514.21 970.562 528.069C963.594 545.392 947.77 544.599 943.849 544.498C940.712 544.418 943.168 547.537 944.789 549.107C974.857 581.668 987.051 550.17 989.39 530.35C996.59 524.457 1005.79 514.309 991.686 515.919C989.568 516.161 987.95 513.782 989.058 511.961C995.688 501.05 990.797 500.977 981.204 481.972C970.5 460.765 962.157 463.78 956.199 467.758Z" stroke="#F0CDBC" stroke-width="5" stroke-linecap="round"/>
<path d="M749.006 490.97C710.852 490.97 724.69 459.317 737.989 441.668C739.325 439.895 741.413 438.85 743.632 438.872C775.13 439.194 788.397 462.665 774.133 479.406C768.03 486.568 775.611 495.307 780.045 502.534C784.479 509.762 793.939 516.701 796.304 486.633C799.26 449.049 780.044 457.72 766.743 441.821C758.595 432.083 766.743 431.461 775.611 436.039C827.886 463.023 822.832 493.18 807.074 518.971C806.664 519.643 806.536 520.452 806.731 521.214C807.265 523.305 809.864 524.057 811.558 522.718C840.09 500.175 822.458 554.041 800.101 575.469C799.558 575.99 798.821 576.269 798.069 576.286C741.493 577.523 732.757 564.643 734.225 557.465C735.703 550.238 751.962 551.683 762.308 551.683C774.133 551.683 769.699 542.343 763.786 543.01C686.926 551.683 700.229 457.722 712.054 460.613C723.878 463.504 716.974 488.293 719.444 496.748C722.4 506.866 730.776 514.099 735.703 518.436C762.308 541.564 768.221 490.97 749.006 490.97Z" stroke="#F0CDBC" stroke-width="5"/>
<path d="M1.99902 591.477C59.8418 573.873 174.234 509.347 169.061 392.081C164.639 291.862 152.555 253.257 144.65 243.029C143.024 240.925 141.436 238.077 141.905 235.46C146.801 208.118 152.428 158.015 141.037 144.184C128.966 129.526 92.5357 78.4375 94.6914 64.4259C104.369 48.9102 117.918 17.6287 94.6914 16.628C90.1381 23.1266 76.7814 31.92 59.0732 16.6463C58.2679 15.9517 58.1815 14.7328 58.9003 13.9491C65.6135 6.62988 79.4886 -3.25167 90.1752 6.87102C116.944 4.86954 127.535 21.9532 109.485 69.3994C116.144 80.2611 148.221 130.06 151.091 132.096C158.036 137.022 171.689 170.975 159.075 231.853C158.532 234.476 159.024 237.209 160.375 239.523C177.171 268.286 190.871 325.045 187.558 392.081C183.189 480.505 143.419 528.071 116.751 555.592C113.985 558.447 115.454 563.167 119.398 563.668C161.414 569.003 222.147 557.683 247.721 551.054M1.99902 616.8C23.664 607.093 74.3983 588.438 104.016 591.477C141.037 595.276 294.654 579.455 302.076 570.106" stroke="#F0CDBC" stroke-width="5"/>
</svg>
