<svg width="390" height="338" viewBox="0 0 390 338" fill="none" xmlns="http://www.w3.org/2000/svg">
<path d="M193.115 263.5C173.651 279.071 159.896 280.109 146.4 320.595" stroke="#F0CDBC" stroke-width="2.12262" stroke-linecap="round"/>
<path d="M33.9905 238.823C28.5151 256.953 22.1602 289.331 39.199 293.508C56.2377 297.685 72.5749 290.839 85.9351 272.134" stroke="#F0CDBC" stroke-width="2.12262"/>
<path d="M57.7979 230.274C36.8202 243.535 -7.07613 251.887 -13.5602 185.851C-13.6735 184.697 -13.2747 183.477 -12.4935 182.62C24.0217 142.559 53.4286 169.61 63.6559 188.38" stroke="#F0CDBC" stroke-width="2.12262"/>
<path d="M65.164 229.485C66.2592 257.47 99.7941 302.269 135.932 267.591C146.067 257.866 144.679 247.815 141.138 236.15M92.6544 203.178C113.042 203.967 136.718 221.593 141.138 236.15M141.138 236.15C154.125 211.709 166.342 167.131 87.7877 191.077" stroke="#F0CDBC" stroke-width="2.12262"/>
<path d="M203.143 211.395C202.853 208.089 200.619 206.414 192.405 204.604C189.032 203.86 185.058 200.281 182.599 194.537M249.135 198.356C247.663 190.477 247.541 192.724 249.135 187.028C258.532 153.443 222.684 139 204.587 137.956C178.881 162.025 177.575 182.8 182.599 194.537M182.599 194.537C170.439 195.921 148.31 204.465 157.08 227.574C155.05 236.971 159.273 254.72 192.405 250.544" stroke="#F0CDBC" stroke-width="2.12262"/>
<path d="M206.502 220.439C192.743 235.96 177.434 272.213 223.635 295.275C225.458 296.185 227.6 296.378 229.508 295.666C245.745 289.604 273.947 268.399 255.161 221.62M228.531 144.53C241.228 137.181 265.477 132.799 260.892 174.06" stroke="#F0CDBC" stroke-width="2.12262"/>
<path d="M296.788 222.702C288.735 226.867 277.085 228.065 272.136 220.192C271.622 219.375 271.026 218.468 270.371 217.482M316.225 198.267C311.365 163.558 281.511 154.118 262.013 173.234C248.862 186.127 263.141 206.586 270.371 217.482M270.371 217.482C258.625 237.863 250.854 273.936 313.737 255.184" stroke="#F0CDBC" stroke-width="2.12262"/>
<path d="M307.062 234.642C305.31 242.927 304.563 251.628 317.172 256.801C331.887 262.838 363.861 271.164 366.563 244.785M329.094 191.048C339.411 199.239 340.612 195.777 345.866 195.777C348.328 195.777 352.654 197.774 356.744 203.371M289.489 163.649C291.847 158.934 300.037 149.949 313.939 151.727C326.92 153.387 330.928 168.567 331.457 177.425C331.527 178.601 331.268 179.762 330.857 180.866C329.581 184.294 328.084 189.677 329.094 192.544C329.548 193.834 320.434 197.442 319.141 201.322M356.744 203.371C361.38 209.715 365.712 220.686 366.678 238.615C366.799 240.856 366.755 242.908 366.563 244.785M356.744 203.371C370.917 211.483 392.723 231.123 366.563 244.785M186.725 251.364C186.725 253.414 187.17 257.283 184.14 260.211M184.14 313.486C184.14 338.968 149.977 335.888 142.417 335.888C137.641 335.888 134.181 332.746 132.338 330.183C131.506 329.025 131.252 327.581 131.339 326.158C131.67 320.772 132.161 315.859 132.791 311.377M194.197 266.507C183.462 283.157 169.608 317.803 200.065 323.184C221.619 326.993 226.543 305.008 224.396 295.705M184.14 260.211C183.05 261.263 181.511 262.254 179.379 263.083C177.583 263.781 175.024 263.92 172.007 264.1M184.14 260.211C174.977 256.878 153.806 253.472 142.417 266.507C140.961 268.173 139.605 269.723 138.343 271.172M132.791 311.377C130.046 308.729 124.445 301.887 123.999 295.705C123.498 288.767 127.267 283.886 138.343 271.172M132.791 311.377C139.127 266.311 159.497 264.847 172.007 264.1M138.343 271.172C145.52 267.498 160.353 257.557 172.007 264.1" stroke="#F0CDBC" stroke-width="2.12262"/>
<path d="M143.301 242.5C146.4 241.261 154.676 239.397 157.793 239.113M144.197 229.82C147.62 228.934 155.649 227.153 156.64 227.294M377.246 236.346C387.165 234.246 401.567 232.299 414.049 232.299C415.373 227.389 421.151 217.675 433.928 215.616C435.725 215.326 437.445 214.645 438.904 213.557C447.051 207.485 460.402 201.805 463.367 217.071C463.57 218.116 463.513 219.198 463.199 220.215C460.546 228.834 452.831 239.046 439.363 222.477C438.303 221.173 436.938 220.052 435.267 219.881C430.418 219.386 423.445 221.771 421.663 234.246C433.526 236.607 458.528 242.71 463.628 248.235C468.728 253.759 499.986 255.849 514.978 256.203C520.644 256.557 532.118 259.532 532.685 268.598C532.331 269.306 528.293 268.952 514.978 261.869C499.757 262.551 467.856 261.33 457.645 251.393C456.868 250.637 456.075 249.903 455.111 249.408C442.551 242.954 411.576 234.966 366.513 245.585" stroke="#F0CDBC" stroke-width="2.12262"/>
<path d="M50.1465 207.173C54.0888 202.299 64.3345 192.791 73.7792 193.753" stroke="#F0CDBC" stroke-width="2.12262" stroke-linecap="round"/>
<path d="M53.5224 195.093C48.3394 199.061 40.7645 206.102 37.8173 212.385M37.8173 212.385C36.0173 216.222 35.9433 219.776 39.1938 222.174C49.9101 230.082 53.2478 216.848 55.6194 207.84C57.991 198.831 78.5691 204.665 62.0247 218.001C48.7893 228.67 52.8017 230.836 56.4623 230.586C86.7997 226.887 82.9805 215.322 77.2787 210.002C72.0642 205.492 63.7927 197.033 72.4228 199.274C83.2105 202.076 83.9497 211.504 84.1898 213.833C84.3818 215.696 86.0408 214.004 86.8463 212.924C103.825 192.637 84.2463 187.824 72.3347 187.954C68.1417 183.997 61.0693 179.114 63.8881 188.697C64.1435 189.565 63.2288 190.374 62.4107 189.986C54.4603 186.223 55.2894 189.06 44.3211 196.496C32.5846 204.453 35.007 209.162 37.8173 212.385Z" stroke="#F0CDBC" stroke-width="2.12262" stroke-linecap="round"/>
<path d="M312.802 207.679C315.881 210.904 321.654 218.996 320.116 225.571" stroke="#F0CDBC" stroke-width="2.12262" stroke-linecap="round"/>
<path d="M321.162 211.509C318.835 207.492 314.558 201.508 310.395 198.857M310.395 198.857C307.852 197.238 305.352 196.862 303.364 198.937C296.811 205.776 305.842 209.335 311.98 211.828C318.118 214.321 312.13 228.305 304.23 215.421C297.909 205.114 296.015 207.747 295.859 210.351C295.706 232.087 304.211 230.446 308.483 226.909C312.139 223.641 318.859 218.577 316.492 224.46C313.534 231.814 306.816 231.477 305.152 231.435C303.82 231.401 304.863 232.725 305.551 233.391C318.315 247.214 323.492 233.842 324.485 225.428C327.542 222.927 331.447 218.619 325.46 219.302C324.561 219.405 323.874 218.395 324.344 217.622C327.159 212.99 325.083 212.959 321.01 204.891C316.466 195.888 312.924 197.168 310.395 198.857Z" stroke="#F0CDBC" stroke-width="2.12262" stroke-linecap="round"/>
<path d="M222.437 208.711C206.24 208.711 212.115 195.273 217.76 187.781C218.328 187.028 219.214 186.584 220.156 186.594C233.528 186.73 239.16 196.695 233.104 203.801C230.513 206.842 233.732 210.552 235.614 213.62C237.497 216.688 241.512 219.634 242.516 206.87C243.771 190.914 235.614 194.595 229.967 187.846C226.508 183.712 229.967 183.448 233.732 185.391C255.924 196.847 253.778 209.649 247.088 220.598C246.914 220.883 246.86 221.226 246.943 221.55C247.17 222.438 248.273 222.757 248.992 222.189C261.105 212.618 253.619 235.486 244.128 244.583C243.898 244.804 243.585 244.922 243.266 244.929C219.248 245.455 215.539 239.987 216.162 236.94C216.79 233.871 223.692 234.485 228.084 234.485C233.104 234.485 231.222 230.52 228.712 230.803C196.083 234.485 201.73 194.596 206.75 195.823C211.77 197.051 208.839 207.574 209.888 211.163C211.142 215.459 214.698 218.529 216.79 220.37C228.084 230.189 230.594 208.711 222.437 208.711Z" stroke="#F0CDBC" stroke-width="2.12262"/>
<path d="M-94.6855 251.378C-70.1299 243.905 -21.5677 216.512 -23.764 166.73C-25.641 124.185 -30.7708 107.796 -34.1267 103.454C-34.817 102.561 -35.4913 101.351 -35.2923 100.24C-33.2136 88.633 -30.8251 67.3633 -35.6605 61.4918C-40.7851 55.269 -56.2506 33.5808 -55.3354 27.6325C-51.227 21.0457 -45.4751 7.766 -55.3354 7.34117C-57.2684 10.1 -62.9387 13.833 -70.4562 7.34895C-70.7981 7.05409 -70.8347 6.53664 -70.5296 6.20393C-67.6797 3.09675 -61.7894 -1.0982 -57.2527 3.19912C-45.8886 2.34945 -41.3926 9.60185 -49.0551 29.7439C-46.2285 34.3549 -32.611 55.4958 -31.3924 56.3601C-28.444 58.4514 -22.6479 72.865 -28.003 98.7092C-28.2338 99.823 -28.0248 100.983 -27.4512 101.965C-20.3208 114.176 -14.5051 138.272 -15.9113 166.73C-17.7661 204.268 -34.6496 224.461 -45.9706 236.144C-47.145 237.356 -46.5211 239.36 -44.8468 239.573C-27.0102 241.837 -1.22729 237.032 9.62931 234.218M-94.6855 262.128C-85.4882 258.007 -63.9503 250.088 -51.3771 251.378C-35.6605 252.991 29.5535 246.275 32.7043 242.306" stroke="#F0CDBC" stroke-width="2.12262"/>
</svg>
