<svg width="484" height="561" viewBox="0 0 484 561" fill="none" xmlns="http://www.w3.org/2000/svg">
<path d="M279.499 388.002C294.032 387.399 316.14 374.16 288.305 326.03C271.213 323.596 236.19 323.913 232.836 344.655M234.129 386.607C233.206 383.157 233.543 380.49 240.369 373.484C248.901 364.727 250.773 351.604 224.106 340.845C202.772 332.237 184.356 337.199 177.815 340.755C173.526 353.352 169.712 372.187 172.375 387.376M215.241 403.596C207.829 402.644 206.614 407.667 204.721 411.041C204.27 411.847 203.397 412.296 202.474 412.323C183.229 412.879 174.896 401.763 172.375 387.376M255.431 396.704C262.818 394.223 268.944 391.117 271.824 383.547C271.972 383.159 272.432 382.991 272.778 383.219C282.521 389.655 299.981 406.24 296.87 424.782C300.37 430.611 304.048 444.024 290.766 451.041C285.012 454.08 279.568 456.451 274.018 457.161M238.684 436.788C252.707 453.927 263.552 458.498 274.018 457.161M227.65 433.353C227.092 443.82 233.622 461.094 262.214 462.463C273.366 462.273 274.73 458.849 274.018 457.161M172.375 387.376C165.336 391.676 156.876 404.308 179.35 420.438C201.824 436.569 212.592 430.786 215.418 424.719" stroke="#F0CDBC" stroke-width="3.19871"/>
<path d="M345.063 247.517C349.221 239.275 367.141 226.875 405.72 242.367M345.063 247.517C341.793 255.958 340.383 266.663 342.029 271.146M345.063 247.517C340.864 234.589 323.79 210.267 289.09 216.41C283.596 226.32 273.109 249.38 275.115 262.333M407.087 242.924C406.628 242.734 406.173 242.549 405.72 242.367M405.72 242.367C408.488 243.401 414.556 244.904 416.687 242.646C419.788 262.525 411.61 304.939 375.769 303.559M291.161 290.689C276.93 280.544 277.135 273.547 275.115 262.333M275.115 262.333C267.36 265.248 256.464 274.535 274.918 288.366C277.248 298.072 286.343 315.105 304.078 305.588" stroke="#F0CDBC" stroke-width="3.19871"/>
<path d="M361.601 296.778C371.35 301.24 374.914 296.913 376.651 293.66C375.895 299.173 375.101 310.705 377.971 312.73C381.558 315.262 402.818 328.924 389.275 348.588C375.732 368.253 360.329 380.558 350.451 376.945C340.573 373.332 304.739 349.385 322.58 316.967" stroke="#F0CDBC" stroke-width="3.19871"/>
<path d="M379.451 149.297C376.916 147.508 377.243 141.985 387.098 138.461C395.16 135.579 398.165 127.526 397.77 117.961M359.384 159.168C363.716 153.031 354.335 149.823 353.087 149.054C338.633 142.405 334.297 130.491 333.044 120.856M333.044 120.856C329.355 92.49 365.559 66.0819 378.456 76.9395C388.844 85.6847 397.173 103.54 397.77 117.961M333.044 120.856C319.103 126.001 296.986 142.78 320.051 168.733C323.716 182.854 328.149 190.569 353.283 172.203C339.371 182.369 341.749 199.552 342.169 204.569C346.712 231.348 365.488 226.71 374.308 221.044M397.77 117.961C406.6 113.272 423.302 108.86 434.729 116.656C449.013 126.401 459.308 119.45 453.836 144.812C457.018 162.361 448.721 181.954 430.873 185.59M402.385 185.107C411.69 178.776 415.762 179.978 418.898 181.45C423.38 183.555 427.355 184.895 430.873 185.59M430.873 185.59C435.72 189.67 444.443 199.718 440.552 207.26C435.688 216.688 438.814 228.5 421.224 226.341C413.761 231.764 396.301 240.756 386.166 233.342C381.826 230.168 377.517 225.945 374.308 221.044M377.538 189.322C368.02 201.12 368.15 211.636 374.308 221.044M329.637 361.997C323.804 391.56 325.874 445.154 250.513 482.635C221.645 496.993 184.042 481.689 156.529 502.472" stroke="#F0CDBC" stroke-width="3.19871"/>
<path d="M319.614 346.168C317.918 378.004 306.749 411.232 297.133 422.154M260.478 462.773C256.981 466.159 246.455 474.455 228.538 477.066C222.178 477.59 178.086 480.891 156.391 502.419M353.598 237.64L349.13 220.599M341.037 237.945C340.069 219.213 323.773 205.968 333.732 183.268M325.227 124.389C323.807 92.6242 256.303 43.2486 274.818 2.7417C272.686 55.5598 319.43 65.8203 333.889 109.73" stroke="#F0CDBC" stroke-width="3.19871"/>
<path d="M339.938 302.25C332.73 304.292 316.177 306.514 307.62 299.067" stroke="#F0CDBC" stroke-width="3.19871" stroke-linecap="round"/>
<path d="M328.316 311.716C336.11 311.414 348.356 309.759 355.563 305.656M355.563 305.656C359.964 303.15 362.485 299.732 360.964 295.15C355.951 280.047 343.574 290.666 335.052 297.827C326.529 304.987 310.459 285.113 335.8 283.493C356.072 282.197 353.648 277.317 349.902 275.04C317.736 257.747 313.496 271.669 315.397 280.792C317.38 288.787 319.626 302.745 312.745 294.611C304.144 284.443 309.919 274.729 311.289 272.29C312.385 270.339 309.599 270.848 308.069 271.347C277.515 279.454 293.313 297.642 305.031 305.723C306.398 312.476 309.939 322.115 313.789 310.818C314.138 309.794 315.588 309.635 316.12 310.577C321.289 319.729 322.434 316.388 338.266 316.686C355.206 317.004 356.086 310.738 355.563 305.656Z" stroke="#F0CDBC" stroke-width="3.19871" stroke-linecap="round"/>
<path d="M387.014 166.311C388.353 151.637 400.041 158.07 406.362 163.804C406.997 164.38 407.326 165.22 407.239 166.073C406.01 178.175 396.517 182.454 390.58 176.381C388.039 173.782 384.413 176.391 381.477 177.843C378.542 179.294 375.541 182.689 387.022 184.654C401.373 187.11 398.713 179.415 405.294 174.857C409.325 172.066 409.278 175.221 407.207 178.471C394.994 197.629 383.573 194.626 374.207 187.661C373.963 187.479 373.657 187.402 373.357 187.45C372.534 187.582 372.153 188.555 372.609 189.254C380.278 201.018 360.18 192.346 352.723 182.996C352.542 182.769 352.46 182.476 352.481 182.186C353.99 160.384 359.25 157.476 361.959 158.293C364.687 159.115 363.561 165.317 363.197 169.296C362.782 173.844 366.53 172.466 366.481 170.169C365.843 140.305 401.513 148.719 399.986 153.165C398.459 157.611 389.168 154.086 385.83 154.739C381.834 155.521 378.759 158.488 376.918 160.231C367.089 169.651 386.34 173.701 387.014 166.311Z" stroke="#F0CDBC" stroke-width="3.19871"/>
<path d="M233.2 399.697C224.505 389.255 236.321 385.829 244.182 385.446C244.971 385.408 245.733 385.741 246.233 386.353C253.323 395.047 249.923 404.026 242.091 403.938C238.74 403.9 238.077 407.966 237.109 410.827C236.142 413.688 236.399 417.858 245.166 411.653C256.125 403.896 249.373 400.613 250.693 393.35C251.501 388.901 253.528 390.989 254.296 394.459C258.825 414.915 249.42 420.405 238.771 421.97C238.493 422.01 238.243 422.16 238.079 422.387C237.628 423.01 238.015 423.892 238.767 424.051C251.439 426.721 232.679 434.172 221.72 432.937C221.454 432.907 221.209 432.769 221.033 432.567C207.801 417.366 209.335 412.04 211.634 410.806C213.949 409.563 217.258 414.342 219.616 417.174C222.311 420.41 223.857 417.068 222.327 415.602C202.437 396.544 231.183 378.771 233.086 382.666C234.99 386.561 226.633 390.321 224.882 392.923C222.786 396.039 222.716 399.979 222.652 402.316C222.386 414.868 237.579 404.955 233.2 399.697Z" stroke="#F0CDBC" stroke-width="3.19871"/>
</svg>
