<svg width="361" height="498" viewBox="0 0 361 498" fill="none" xmlns="http://www.w3.org/2000/svg">
<path d="M154.127 215.085C155.562 207.004 143.306 196.026 131.339 192.637M151.762 263.715C148.08 265.073 144.831 274.729 145.902 276.303C148.018 281.94 167.357 333.182 114.577 317.193C33.9349 292.764 35.3957 276.177 34.4928 269.284C33.7684 263.755 38.6974 249.906 81.304 211.517C103.045 191.929 118.871 189.105 131.339 192.637M131.339 192.637C129.832 173.736 135.567 133.166 167.385 112.702C168.605 111.918 170.095 111.675 171.482 112.1C186.729 116.764 218.144 135.952 229.505 187.601" stroke="#F0CDBC" stroke-width="5.54767" stroke-linecap="round"/>
<path d="M203.374 225.836C207.353 218.437 207.044 224.36 205.783 203.885C204.256 179.082 302.535 190.192 324.269 249.534C325.576 253.102 324.566 257.048 321.937 259.792C283.657 299.744 213.4 352.715 208.491 274.182C208.033 268.547 208.166 262.158 203.717 258.812" stroke="#F0CDBC" stroke-width="5.54767" stroke-linecap="round"/>
<path d="M99.3922 313.576C97.672 331.624 98.0436 367.176 113.291 365.001C132.351 362.281 167.105 331.207 172.108 293.253" stroke="#F0CDBC" stroke-width="5.54767" stroke-linecap="round"/>
<path d="M171.838 298.565C189.627 320.108 229.574 367.298 258.664 360.077C270.528 357.132 262.393 315.619 258.659 310.614" stroke="#F0CDBC" stroke-width="5.54767" stroke-linecap="round"/>
<path d="M169.259 239.021C149.514 231.739 161.449 218.248 171.874 211.123C173.706 209.871 176.044 209.596 178.084 210.472C193.724 217.183 195.771 231.777 185.078 237.784C180.372 240.428 182.717 246.635 183.669 251.406C184.621 256.176 188.335 261.788 195.576 246.075C204.627 226.433 192.564 227.286 188.56 216.089C186.108 209.231 190.616 210.513 194.481 214.737C217.26 239.636 208.554 254.863 194.954 265.617C194.6 265.897 194.37 266.307 194.324 266.756C194.197 267.987 195.446 268.907 196.623 268.523C216.27 262.113 196.645 287.074 180.442 294.438C179.757 294.749 178.968 294.759 178.257 294.512C148.014 284.023 145.903 275.429 148.106 271.875C150.336 268.279 158.8 272.284 164.368 274.337C170.732 276.684 170.2 270.777 166.885 269.963C123.797 259.376 149.606 211.446 155.396 215.348C161.187 219.251 152.551 231.222 152.202 236.263C151.785 242.296 154.857 247.851 156.648 251.163C166.377 268.891 179.601 242.835 169.259 239.021Z" stroke="#F0CDBC" stroke-width="5"/>
<path d="M168.389 308.022C182.404 324.774 215.841 372.569 188.69 405.907C166.421 433.25 197.548 488.256 218.562 494.624C196.835 477.244 177.366 439.934 198.85 409.287C224.199 373.125 188.764 321.597 179.97 308.021" stroke="#F0CDBC" stroke-width="5"/>
<path d="M130.713 189.978C116.698 173.226 83.2607 125.43 110.411 92.0933C132.681 64.7496 101.554 9.74397 80.5399 3.37612C102.266 20.7555 121.735 58.0659 100.252 88.7124C74.9022 124.875 110.338 176.403 119.131 189.979" stroke="#F0CDBC" stroke-width="5"/>
</svg>
