<svg width="20" height="21" viewBox="0 0 20 21" fill="none" xmlns="http://www.w3.org/2000/svg">
<path d="M12.8099 10.78C13.4429 10.1002 13.7994 9.20877 13.8099 8.28C13.8099 7.27748 13.4116 6.31602 12.7027 5.60714C11.9939 4.89825 11.0324 4.5 10.0299 4.5C9.02736 4.5 8.0659 4.89825 7.35701 5.60714C6.64813 6.31602 6.24988 7.27748 6.24988 8.28C6.26031 9.20877 6.6169 10.1002 7.24988 10.78C6.36853 11.2189 5.6101 11.8699 5.04279 12.6746C4.47549 13.4793 4.1171 14.4124 3.99988 15.39C3.9707 15.6552 4.04808 15.9212 4.21499 16.1293C4.3819 16.3375 4.62466 16.4708 4.88988 16.5C5.15509 16.5292 5.42104 16.4518 5.6292 16.2849C5.83737 16.118 5.9707 15.8752 5.99988 15.61C6.11921 14.6411 6.58872 13.7494 7.31996 13.1027C8.05121 12.456 8.99369 12.099 9.96988 12.099C10.9461 12.099 11.8886 12.456 12.6198 13.1027C13.351 13.7494 13.8205 14.6411 13.9399 15.61C13.9677 15.8664 14.0935 16.1022 14.291 16.268C14.4886 16.4339 14.7425 16.517 14.9999 16.5H15.1099C15.372 16.4698 15.6116 16.3373 15.7764 16.1313C15.9413 15.9252 16.018 15.6624 15.9899 15.4C15.8813 14.4276 15.5343 13.497 14.9795 12.691C14.4247 11.8851 13.6794 11.2286 12.8099 10.78ZM9.99988 10.06C9.64783 10.06 9.30368 9.9556 9.01096 9.76002C8.71824 9.56443 8.4901 9.28643 8.35537 8.96118C8.22065 8.63592 8.1854 8.27803 8.25408 7.93274C8.32276 7.58745 8.49229 7.27029 8.74123 7.02135C8.99017 6.77241 9.30733 6.60288 9.65262 6.5342C9.9979 6.46552 10.3558 6.50077 10.6811 6.63549C11.0063 6.77022 11.2843 6.99837 11.4799 7.29109C11.6755 7.5838 11.7799 7.92795 11.7799 8.28C11.7799 8.75208 11.5923 9.20484 11.2585 9.53865C10.9247 9.87247 10.472 10.06 9.99988 10.06ZM16.9999 0.5H2.99988C2.20423 0.5 1.44117 0.816071 0.878558 1.37868C0.315949 1.94129 -0.00012207 2.70435 -0.00012207 3.5V17.5C-0.00012207 18.2956 0.315949 19.0587 0.878558 19.6213C1.44117 20.1839 2.20423 20.5 2.99988 20.5H16.9999C17.7955 20.5 18.5586 20.1839 19.1212 19.6213C19.6838 19.0587 19.9999 18.2956 19.9999 17.5V3.5C19.9999 2.70435 19.6838 1.94129 19.1212 1.37868C18.5586 0.816071 17.7955 0.5 16.9999 0.5ZM17.9999 17.5C17.9999 17.7652 17.8945 18.0196 17.707 18.2071C17.5194 18.3946 17.2651 18.5 16.9999 18.5H2.99988C2.73466 18.5 2.48031 18.3946 2.29277 18.2071C2.10523 18.0196 1.99988 17.7652 1.99988 17.5V3.5C1.99988 3.23478 2.10523 2.98043 2.29277 2.79289C2.48031 2.60536 2.73466 2.5 2.99988 2.5H16.9999C17.2651 2.5 17.5194 2.60536 17.707 2.79289C17.8945 2.98043 17.9999 3.23478 17.9999 3.5V17.5Z" fill="#844424"/>
</svg>
