<svg width="8" height="12" viewBox="0 0 8 12" fill="none" xmlns="http://www.w3.org/2000/svg">
<path d="M3.88338 0.670288C1.77597 0.670288 0.0715332 2.37473 0.0715332 4.48213C0.0715332 6.7529 2.47844 9.88406 3.46952 11.0766C3.68734 11.338 4.08486 11.338 4.30268 11.0766C5.28832 9.88406 7.69522 6.7529 7.69522 4.48213C7.69522 2.37473 5.99079 0.670288 3.88338 0.670288ZM3.88338 5.84351C3.1319 5.84351 2.52201 5.23361 2.52201 4.48213C2.52201 3.73066 3.1319 3.12076 3.88338 3.12076C4.63486 3.12076 5.24475 3.73066 5.24475 4.48213C5.24475 5.23361 4.63486 5.84351 3.88338 5.84351Z" fill="#844424"/>
</svg>
