<svg width="17" height="21" viewBox="0 0 17 21" fill="none" xmlns="http://www.w3.org/2000/svg">
<path d="M16.1335 14.5C16.0791 14.3785 16.0047 14.2669 15.9135 14.17L11.2835 9.5C11.0922 9.33617 10.8461 9.25057 10.5944 9.26029C10.3427 9.27001 10.104 9.37434 9.92589 9.55244C9.7478 9.73053 9.64347 9.96927 9.63375 10.2209C9.62402 10.4726 9.70963 10.7187 9.87346 10.91L12.7935 13.83H5.79346C4.99781 13.83 4.23475 13.5139 3.67214 12.9513C3.10953 12.3887 2.79346 11.6256 2.79346 10.83V1.5C2.79346 1.23478 2.6881 0.98043 2.50056 0.792893C2.31303 0.605357 2.05867 0.5 1.79346 0.5C1.52824 0.5 1.27389 0.605357 1.08635 0.792893C0.898814 0.98043 0.793457 1.23478 0.793457 1.5V10.87C0.793457 12.1961 1.32024 13.4679 2.25792 14.4055C3.19561 15.3432 4.46738 15.87 5.79346 15.87H12.7935L9.87346 18.79C9.77973 18.883 9.70533 18.9936 9.65457 19.1154C9.6038 19.2373 9.57766 19.368 9.57766 19.5C9.57766 19.632 9.6038 19.7627 9.65457 19.8846C9.70533 20.0064 9.77973 20.117 9.87346 20.21C9.9669 20.3027 10.0777 20.376 10.1996 20.4258C10.3214 20.4755 10.4519 20.5008 10.5835 20.5C10.8458 20.4989 11.0972 20.3947 11.2835 20.21L15.9135 15.58C16.0081 15.4858 16.0829 15.3736 16.1335 15.25C16.2308 15.0095 16.2308 14.7405 16.1335 14.5Z" fill="#844424"/>
</svg>
