<svg width="10" height="11" viewBox="0 0 10 11" fill="none" xmlns="http://www.w3.org/2000/svg">
<path d="M7.57162 0.129883H1.57155C1.17372 0.129883 0.792186 0.28792 0.510878 0.569228C0.22957 0.850536 0.0715332 1.23207 0.0715332 1.6299V7.62997C0.072403 7.93945 0.168974 8.24108 0.348006 8.49352C0.527038 8.74595 0.779767 8.93683 1.07155 9.03999V9.63C1.07155 9.76261 1.12422 9.88979 1.21799 9.98356C1.31176 10.0773 1.43894 10.13 1.57155 10.13C1.70416 10.13 1.83134 10.0773 1.92511 9.98356C2.01888 9.88979 2.07156 9.76261 2.07156 9.63V9.12999H7.07162V9.63C7.07162 9.76261 7.1243 9.88979 7.21807 9.98356C7.31184 10.0773 7.43901 10.13 7.57162 10.13C7.70423 10.13 7.83141 10.0773 7.92518 9.98356C8.01895 9.88979 8.07163 9.76261 8.07163 9.63V9.03999C8.36341 8.93683 8.61614 8.74595 8.79517 8.49352C8.9742 8.24108 9.07077 7.93945 9.07164 7.62997V1.6299C9.07164 1.23207 8.91361 0.850536 8.6323 0.569228C8.35099 0.28792 7.96945 0.129883 7.57162 0.129883ZM1.07155 3.12992H4.07158V5.12994H1.07155V3.12992ZM8.07163 7.62997C8.07163 7.76258 8.01895 7.88976 7.92518 7.98353C7.83141 8.0773 7.70423 8.12998 7.57162 8.12998H1.57155C1.43894 8.12998 1.31176 8.0773 1.21799 7.98353C1.12422 7.88976 1.07155 7.76258 1.07155 7.62997V6.12996H8.07163V7.62997ZM8.07163 5.12994H5.07159V3.12992H8.07163V5.12994ZM8.07163 2.12991H1.07155V1.6299C1.07155 1.49729 1.12422 1.37011 1.21799 1.27634C1.31176 1.18257 1.43894 1.12989 1.57155 1.12989H7.57162C7.70423 1.12989 7.83141 1.18257 7.92518 1.27634C8.01895 1.37011 8.07163 1.49729 8.07163 1.6299V2.12991ZM6.38161 7.58997C6.44172 7.61559 6.50627 7.62918 6.57161 7.62997C6.70422 7.62997 6.8314 7.5773 6.92517 7.48353C7.01894 7.38976 7.07162 7.26258 7.07162 7.12997C7.07407 7.09668 7.07407 7.06326 7.07162 7.02997C7.06615 6.99864 7.05603 6.96831 7.04162 6.93997C7.03067 6.9081 7.01554 6.87784 6.99662 6.84996C6.97816 6.82377 6.95812 6.79872 6.93662 6.77496L6.86162 6.71496C6.83374 6.69604 6.80348 6.68091 6.77161 6.66996C6.74078 6.65107 6.70697 6.63755 6.67161 6.62996C6.59052 6.61301 6.50649 6.61647 6.42707 6.64004C6.34765 6.6636 6.27533 6.70653 6.21661 6.76496C6.19511 6.78872 6.17507 6.81377 6.15661 6.83996C6.13768 6.86784 6.12255 6.8981 6.11161 6.92997C6.09719 6.95831 6.08708 6.98864 6.08161 7.01997C6.07915 7.05326 6.07915 7.08668 6.08161 7.11997C6.08216 7.25114 6.13423 7.37684 6.22661 7.46997C6.26985 7.51981 6.32253 7.56059 6.38161 7.58997ZM2.38156 7.58997C2.44167 7.61559 2.50622 7.62918 2.57156 7.62997C2.70417 7.62997 2.83135 7.5773 2.92512 7.48353C3.01889 7.38976 3.07157 7.26258 3.07157 7.12997C3.07402 7.09668 3.07402 7.06326 3.07157 7.02997C3.0661 6.99864 3.05599 6.96831 3.04157 6.93997C3.03062 6.9081 3.01549 6.87784 2.99657 6.84996C2.97811 6.82377 2.95807 6.79872 2.93657 6.77496L2.86157 6.71496L2.77157 6.66996L2.67156 6.62996C2.59048 6.61301 2.50644 6.61647 2.42702 6.64004C2.3476 6.6636 2.27528 6.70653 2.21656 6.76496C2.19506 6.78872 2.17502 6.81377 2.15656 6.83996C2.13764 6.86784 2.1225 6.8981 2.11156 6.92997C2.09714 6.95831 2.08703 6.98864 2.08156 7.01997C2.0791 7.05326 2.0791 7.08668 2.08156 7.11997C2.08211 7.25114 2.13419 7.37684 2.22656 7.46997C2.2698 7.51981 2.32248 7.56059 2.38156 7.58997Z" fill="#844424"/>
</svg>
