<svg width="14" height="11" viewBox="0 0 14 11" fill="none" xmlns="http://www.w3.org/2000/svg">
<path d="M11.5577 3.55639H11.3482L10.53 1.51408C10.3838 1.15095 10.1325 0.839779 9.80827 0.620505C9.48402 0.40123 9.10165 0.283859 8.71022 0.283455H4.78269C4.32794 0.282154 3.88684 0.438718 3.53467 0.726423C3.1825 1.01413 2.94109 1.41514 2.85166 1.86101L2.51127 3.55639H2.39345C1.87263 3.55639 1.37314 3.76329 1.00486 4.13156C0.636583 4.49984 0.429688 4.99933 0.429688 5.52015V7.48392C0.429688 7.65752 0.498653 7.82402 0.621412 7.94678C0.744171 8.06954 0.910667 8.1385 1.08427 8.1385H1.73886C1.73886 8.65932 1.94576 9.15882 2.31403 9.52709C2.68231 9.89537 3.1818 10.1023 3.70262 10.1023C4.22345 10.1023 4.72294 9.89537 5.09121 9.52709C5.45949 9.15882 5.66639 8.65932 5.66639 8.1385H8.28473C8.28473 8.65932 8.49163 9.15882 8.85991 9.52709C9.22818 9.89537 9.72767 10.1023 10.2485 10.1023C10.7693 10.1023 11.2688 9.89537 11.6371 9.52709C12.0054 9.15882 12.2123 8.65932 12.2123 8.1385H12.8668C13.0405 8.1385 13.207 8.06954 13.3297 7.94678C13.4525 7.82402 13.5214 7.65752 13.5214 7.48392V5.52015C13.5214 4.99933 13.3145 4.49984 12.9463 4.13156C12.578 3.76329 12.0785 3.55639 11.5577 3.55639ZM7.63015 1.59263H8.71022C8.8402 1.59381 8.96689 1.63366 9.07414 1.7071C9.18139 1.78054 9.26435 1.88426 9.31244 2.00502L9.93429 3.55639H7.63015V1.59263ZM4.13465 2.1163C4.16525 1.96622 4.24752 1.83162 4.36712 1.73594C4.48673 1.64025 4.6361 1.58954 4.78924 1.59263H6.32097V3.55639H3.84663L4.13465 2.1163ZM3.70262 8.79309C3.57316 8.79309 3.4466 8.7547 3.33895 8.68277C3.23131 8.61085 3.14741 8.50861 3.09786 8.389C3.04832 8.26939 3.03536 8.13778 3.06061 8.0108C3.08587 7.88382 3.14822 7.76719 3.23976 7.67564C3.33131 7.58409 3.44794 7.52175 3.57492 7.49649C3.7019 7.47124 3.83351 7.4842 3.95312 7.53374C4.07273 7.58329 4.17497 7.66719 4.24689 7.77483C4.31882 7.88248 4.35721 8.00904 4.35721 8.1385C4.35721 8.31211 4.28825 8.47861 4.16549 8.60137C4.04273 8.72412 3.87623 8.79309 3.70262 8.79309ZM10.2485 8.79309C10.119 8.79309 9.99247 8.7547 9.88483 8.68277C9.77718 8.61085 9.69328 8.50861 9.64374 8.389C9.59419 8.26939 9.58123 8.13778 9.60649 8.0108C9.63174 7.88382 9.69409 7.76719 9.78563 7.67564C9.87718 7.58409 9.99381 7.52175 10.1208 7.49649C10.2478 7.47124 10.3794 7.4842 10.499 7.53374C10.6186 7.58329 10.7208 7.66719 10.7928 7.77483C10.8647 7.88248 10.9031 8.00904 10.9031 8.1385C10.9031 8.31211 10.8341 8.47861 10.7114 8.60137C10.5886 8.72412 10.4221 8.79309 10.2485 8.79309ZM12.2123 6.82933H11.7017C11.5176 6.62683 11.2933 6.46503 11.043 6.35432C10.7928 6.2436 10.5221 6.18641 10.2485 6.18641C9.97485 6.18641 9.70422 6.2436 9.45397 6.35432C9.20372 6.46503 8.97937 6.62683 8.79531 6.82933H5.15581C4.97175 6.62683 4.7474 6.46503 4.49715 6.35432C4.2469 6.2436 3.97627 6.18641 3.70262 6.18641C3.42898 6.18641 3.15835 6.2436 2.9081 6.35432C2.65785 6.46503 2.4335 6.62683 2.24944 6.82933H1.73886V5.52015C1.73886 5.34655 1.80783 5.18005 1.93059 5.05729C2.05335 4.93453 2.21984 4.86557 2.39345 4.86557H11.5577C11.7313 4.86557 11.8978 4.93453 12.0205 5.05729C12.1433 5.18005 12.2123 5.34655 12.2123 5.52015V6.82933Z" fill="#844424"/>
</svg>
