<svg width="12" height="12" viewBox="0 0 12 12" fill="none" xmlns="http://www.w3.org/2000/svg">
<path d="M7.37876 5.02153H6.27876V2.82153C6.27876 2.67566 6.22081 2.53577 6.11767 2.43262C6.01452 2.32948 5.87463 2.27153 5.72876 2.27153C5.58289 2.27153 5.443 2.32948 5.33985 2.43262C5.23671 2.53577 5.17876 2.67566 5.17876 2.82153V5.57153C5.17876 5.7174 5.23671 5.8573 5.33985 5.96044C5.443 6.06358 5.58289 6.12153 5.72876 6.12153H7.37876C7.52463 6.12153 7.66452 6.06358 7.76767 5.96044C7.87081 5.8573 7.92876 5.7174 7.92876 5.57153C7.92876 5.42566 7.87081 5.28577 7.76767 5.18262C7.66452 5.07948 7.52463 5.02153 7.37876 5.02153ZM5.72876 0.0715332C4.64096 0.0715332 3.5776 0.394102 2.67313 0.99845C1.76866 1.6028 1.06371 2.46178 0.647425 3.46677C0.231143 4.47177 0.122225 5.57763 0.334443 6.64453C0.546662 7.71142 1.07049 8.69143 1.83967 9.46062C2.60886 10.2298 3.58887 10.7536 4.65577 10.9658C5.72266 11.1781 6.82853 11.0691 7.83352 10.6529C8.83851 10.2366 9.69749 9.53164 10.3018 8.62717C10.9062 7.7227 11.2288 6.65933 11.2288 5.57153C11.2288 4.84926 11.0865 4.13406 10.8101 3.46677C10.5337 2.79948 10.1286 2.19317 9.61785 1.68245C9.10713 1.17172 8.50081 0.766596 7.83352 0.490196C7.16623 0.213795 6.45103 0.0715332 5.72876 0.0715332ZM5.72876 9.97153C4.85852 9.97153 4.00783 9.71347 3.28425 9.23C2.56068 8.74652 1.99672 8.05933 1.66369 7.25534C1.33067 6.45134 1.24353 5.56665 1.41331 4.71313C1.58308 3.85962 2.00214 3.07561 2.61749 2.46026C3.23284 1.84491 4.01685 1.42585 4.87036 1.25608C5.72388 1.0863 6.60857 1.17344 7.41257 1.50646C8.21656 1.83949 8.90375 2.40345 9.38723 3.12702C9.8707 3.8506 10.1288 4.70129 10.1288 5.57153C10.1288 6.73848 9.66519 7.85764 8.84003 8.6828C8.01487 9.50796 6.89571 9.97153 5.72876 9.97153Z" fill="#844424"/>
</svg>
