<svg width="22" height="17" viewBox="0 0 22 17" fill="none" xmlns="http://www.w3.org/2000/svg">
<path d="M18.314 0.141113H3.68587C2.85453 0.141113 2.05723 0.471366 1.46937 1.05922C0.881522 1.64707 0.55127 2.44437 0.55127 3.27572V13.7244C0.55127 14.5558 0.881522 15.3531 1.46937 15.9409C2.05723 16.5288 2.85453 16.859 3.68587 16.859H18.314C19.1454 16.859 19.9427 16.5288 20.5305 15.9409C21.1184 15.3531 21.4486 14.5558 21.4486 13.7244V3.27572C21.4486 2.44437 21.1184 1.64707 20.5305 1.05922C19.9427 0.471366 19.1454 0.141113 18.314 0.141113ZM17.8856 2.23085L11.7418 8.37468C11.6447 8.47261 11.5291 8.55034 11.4018 8.60339C11.2745 8.65644 11.1379 8.68375 11 8.68375C10.862 8.68375 10.7254 8.65644 10.5981 8.60339C10.4708 8.55034 10.3552 8.47261 10.2581 8.37468L4.11427 2.23085H17.8856ZM19.3589 13.7244C19.3589 14.0015 19.2488 14.2673 19.0529 14.4632C18.8569 14.6592 18.5912 14.7693 18.314 14.7693H3.68587C3.40876 14.7693 3.14299 14.6592 2.94704 14.4632C2.75109 14.2673 2.64101 14.0015 2.64101 13.7244V3.70411L8.78483 9.84794C9.37257 10.435 10.1693 10.7647 11 10.7647C11.8306 10.7647 12.6273 10.435 13.2151 9.84794L19.3589 3.70411V13.7244Z" fill="#844424"/>
</svg>
