<svg width="197" height="40" viewBox="0 0 197 40" xmlns="http://www.w3.org/2000/svg">
<path d="M58.8656 0H3.13444C1.40337 0 0 1.40338 0 3.13444V6.7025H62V3.13444C62 1.40338 60.5966 0 58.8656 0Z" />
<path d="M0 36.7272C0 38.4583 1.40337 39.8617 3.13444 39.8617H58.8654C60.5965 39.8617 61.9999 38.4583 61.9999 36.7272V15.8678H0V36.7272ZM26.6404 32.8641H22.7021C21.5771 32.8641 20.6651 31.952 20.6651 30.827C20.6651 29.7021 21.5771 28.79 22.7021 28.79H26.6404C27.7653 28.79 28.6774 29.7021 28.6774 30.827C28.6774 31.952 27.7653 32.8641 26.6404 32.8641ZM47.3224 28.79H53.7051C54.8301 28.79 55.7421 29.7021 55.7421 30.827C55.7421 31.952 54.8301 32.8641 53.7051 32.8641H47.3224C46.1974 32.8641 45.2854 31.952 45.2854 30.827C45.2854 29.7021 46.1974 28.79 47.3224 28.79ZM41.1711 30.827C41.1711 31.952 40.2591 32.8641 39.1341 32.8641H35.1959C34.0709 32.8641 33.1588 31.952 33.1588 30.827C33.1588 29.7021 34.0709 28.79 35.1959 28.79H39.1341C40.2591 28.79 41.1711 29.7021 41.1711 30.827ZM7.99519 21.0493H38.4148C39.5398 21.0493 40.4518 21.9614 40.4518 23.0863C40.4518 24.2113 39.5398 25.1234 38.4148 25.1234H7.99519C6.87021 25.1234 5.95816 24.2113 5.95816 23.0863C5.95816 21.9614 6.87021 21.0493 7.99519 21.0493ZM7.99519 28.79H14.3779C15.5029 28.79 16.4149 29.7021 16.4149 30.827C16.4149 31.952 15.503 32.8641 14.3779 32.8641H7.99519C6.87021 32.8641 5.95816 31.952 5.95816 30.827C5.95816 29.7021 6.87021 28.79 7.99519 28.79Z" />
<path d="M86.3687 23.2139C86.1896 25.11 85.4897 26.5911 84.269 27.6572C83.0483 28.7152 81.4248 29.2441 79.3984 29.2441C77.9824 29.2441 76.7332 28.9105 75.6509 28.2432C74.5767 27.5677 73.7466 26.6115 73.1606 25.3745C72.5747 24.1375 72.2695 22.7012 72.2451 21.0654V19.4053C72.2451 17.7288 72.5422 16.2518 73.1362 14.9741C73.7303 13.6965 74.5807 12.7118 75.6875 12.02C76.8024 11.3283 78.0882 10.9824 79.5449 10.9824C81.5062 10.9824 83.085 11.5155 84.2812 12.5815C85.4775 13.6476 86.1733 15.1532 86.3687 17.0981H83.2925C83.146 15.8205 82.7716 14.9009 82.1694 14.3394C81.5754 13.7697 80.7005 13.4849 79.5449 13.4849C78.2021 13.4849 77.1686 13.9772 76.4443 14.9619C75.7282 15.9385 75.362 17.3748 75.3457 19.271V20.8457C75.3457 22.7663 75.6875 24.2311 76.3711 25.2402C77.0628 26.2493 78.0719 26.7539 79.3984 26.7539C80.611 26.7539 81.5225 26.4813 82.1328 25.936C82.7432 25.3908 83.1297 24.4834 83.2925 23.2139H86.3687ZM95.7681 18.502C95.3774 18.4368 94.9746 18.4043 94.5596 18.4043C93.2005 18.4043 92.285 18.9251 91.813 19.9668V29H88.8467V15.792H91.6787L91.752 17.269C92.4681 16.1216 93.4609 15.5479 94.7305 15.5479C95.1536 15.5479 95.5036 15.6048 95.7803 15.7188L95.7681 18.502ZM103.214 29.2441C101.334 29.2441 99.8086 28.6541 98.6367 27.4741C97.473 26.286 96.8911 24.7072 96.8911 22.7378V22.3716C96.8911 21.0532 97.1434 19.8773 97.6479 18.8438C98.1606 17.8021 98.8768 16.9924 99.7964 16.4146C100.716 15.8368 101.741 15.5479 102.873 15.5479C104.671 15.5479 106.059 16.1216 107.035 17.269C108.02 18.4165 108.512 20.04 108.512 22.1396V23.3359H99.8818C99.9714 24.4264 100.333 25.2891 100.968 25.9238C101.611 26.5586 102.417 26.876 103.385 26.876C104.744 26.876 105.851 26.3267 106.706 25.228L108.305 26.7539C107.776 27.5433 107.068 28.1577 106.181 28.5972C105.302 29.0285 104.313 29.2441 103.214 29.2441ZM102.86 17.9282C102.047 17.9282 101.387 18.2131 100.883 18.7827C100.386 19.3524 100.069 20.1458 99.9307 21.1631H105.583V20.9434C105.517 19.9505 105.253 19.2018 104.789 18.6973C104.325 18.1846 103.682 17.9282 102.86 17.9282ZM110.27 22.2983C110.27 20.2638 110.742 18.6322 111.686 17.4033C112.63 16.1663 113.896 15.5479 115.482 15.5479C116.882 15.5479 118.013 16.0361 118.876 17.0127V10.25H121.842V29H119.157L119.01 27.6328C118.123 28.707 116.939 29.2441 115.458 29.2441C113.912 29.2441 112.659 28.6216 111.698 27.3765C110.746 26.1313 110.27 24.4386 110.27 22.2983ZM113.236 22.5547C113.236 23.8975 113.493 24.9473 114.005 25.7041C114.526 26.4528 115.263 26.8271 116.215 26.8271C117.427 26.8271 118.314 26.286 118.876 25.2036V19.564C118.331 18.506 117.452 17.9771 116.239 17.9771C115.279 17.9771 114.538 18.3595 114.018 19.1245C113.497 19.8813 113.236 21.0247 113.236 22.5547ZM128.092 29H125.126V15.792H128.092V29ZM124.943 12.3618C124.943 11.9061 125.085 11.5277 125.37 11.2266C125.663 10.9255 126.078 10.7749 126.615 10.7749C127.152 10.7749 127.567 10.9255 127.86 11.2266C128.153 11.5277 128.3 11.9061 128.3 12.3618C128.3 12.8094 128.153 13.1838 127.86 13.4849C127.567 13.7778 127.152 13.9243 126.615 13.9243C126.078 13.9243 125.663 13.7778 125.37 13.4849C125.085 13.1838 124.943 12.8094 124.943 12.3618ZM135.05 12.5815V15.792H137.382V17.9893H135.05V25.3623C135.05 25.8669 135.148 26.2331 135.343 26.4609C135.547 26.6807 135.905 26.7905 136.417 26.7905C136.759 26.7905 137.105 26.7498 137.455 26.6685V28.9634C136.78 29.1506 136.129 29.2441 135.502 29.2441C133.223 29.2441 132.084 27.9868 132.084 25.4722V17.9893H129.911V15.792H132.084V12.5815H135.05ZM159.733 23.2139C159.554 25.11 158.854 26.5911 157.633 27.6572C156.413 28.7152 154.789 29.2441 152.763 29.2441C151.347 29.2441 150.097 28.9105 149.015 28.2432C147.941 27.5677 147.111 26.6115 146.525 25.3745C145.939 24.1375 145.634 22.7012 145.609 21.0654V19.4053C145.609 17.7288 145.906 16.2518 146.5 14.9741C147.095 13.6965 147.945 12.7118 149.052 12.02C150.167 11.3283 151.452 10.9824 152.909 10.9824C154.87 10.9824 156.449 11.5155 157.646 12.5815C158.842 13.6476 159.538 15.1532 159.733 17.0981H156.657C156.51 15.8205 156.136 14.9009 155.534 14.3394C154.94 13.7697 154.065 13.4849 152.909 13.4849C151.566 13.4849 150.533 13.9772 149.809 14.9619C149.092 15.9385 148.726 17.3748 148.71 19.271V20.8457C148.71 22.7663 149.052 24.2311 149.735 25.2402C150.427 26.2493 151.436 26.7539 152.763 26.7539C153.975 26.7539 154.887 26.4813 155.497 25.936C156.107 25.3908 156.494 24.4834 156.657 23.2139H159.733ZM170.109 29C169.979 28.7477 169.865 28.3368 169.767 27.7671C168.823 28.7518 167.667 29.2441 166.3 29.2441C164.974 29.2441 163.891 28.8657 163.053 28.1089C162.215 27.3521 161.796 26.4162 161.796 25.3013C161.796 23.8934 162.317 22.8151 163.358 22.0664C164.408 21.3096 165.906 20.9312 167.851 20.9312H169.669V20.0645C169.669 19.3809 169.478 18.8356 169.096 18.4287C168.713 18.0137 168.131 17.8062 167.35 17.8062C166.675 17.8062 166.121 17.9771 165.69 18.3188C165.259 18.6525 165.043 19.0798 165.043 19.6006H162.077C162.077 18.8763 162.317 18.2008 162.797 17.5742C163.277 16.9395 163.928 16.443 164.75 16.085C165.58 15.7269 166.504 15.5479 167.521 15.5479C169.067 15.5479 170.3 15.9385 171.22 16.7197C172.139 17.4928 172.611 18.5833 172.636 19.9912V25.9482C172.636 27.1364 172.803 28.0845 173.136 28.7925V29H170.109ZM166.85 26.8638C167.436 26.8638 167.985 26.7214 168.498 26.4365C169.018 26.1517 169.409 25.7692 169.669 25.2891V22.7988H168.07C166.972 22.7988 166.146 22.9901 165.592 23.3726C165.039 23.755 164.762 24.2962 164.762 24.9961C164.762 25.5658 164.949 26.0215 165.324 26.3633C165.706 26.6969 166.215 26.8638 166.85 26.8638ZM182.658 18.502C182.267 18.4368 181.864 18.4043 181.449 18.4043C180.09 18.4043 179.175 18.9251 178.703 19.9668V29H175.736V15.792H178.568L178.642 17.269C179.358 16.1216 180.351 15.5479 181.62 15.5479C182.043 15.5479 182.393 15.6048 182.67 15.7188L182.658 18.502ZM183.732 22.2983C183.732 20.2638 184.204 18.6322 185.148 17.4033C186.092 16.1663 187.357 15.5479 188.944 15.5479C190.344 15.5479 191.475 16.0361 192.338 17.0127V10.25H195.304V29H192.619L192.472 27.6328C191.585 28.707 190.401 29.2441 188.92 29.2441C187.374 29.2441 186.12 28.6216 185.16 27.3765C184.208 26.1313 183.732 24.4386 183.732 22.2983ZM186.698 22.5547C186.698 23.8975 186.955 24.9473 187.467 25.7041C187.988 26.4528 188.725 26.8271 189.677 26.8271C190.889 26.8271 191.776 26.286 192.338 25.2036V19.564C191.793 18.506 190.914 17.9771 189.701 17.9771C188.741 17.9771 188 18.3595 187.479 19.1245C186.959 19.8813 186.698 21.0247 186.698 22.5547Z" />
</svg>
