<svg width="11" height="8" viewBox="0 0 11 8" fill="none" xmlns="http://www.w3.org/2000/svg">
<path d="M0.815092 4.70149C0.844977 4.62441 0.88979 4.55399 0.946956 4.49427L2.83071 2.61052C2.94894 2.49228 3.10931 2.42586 3.27653 2.42586C3.44374 2.42586 3.60411 2.49228 3.72235 2.61052C3.84058 2.72876 3.90701 2.88913 3.90701 3.05634C3.90701 3.22356 3.84058 3.38393 3.72235 3.50216L2.90605 4.31218H8.92777C9.09431 4.31218 9.25402 4.24602 9.37178 4.12826C9.48953 4.01051 9.55569 3.85079 9.55569 3.68426V1.17259C9.55569 1.00606 9.62185 0.846348 9.7396 0.72859C9.85736 0.610833 10.0171 0.544678 10.1836 0.544678C10.3501 0.544678 10.5099 0.610833 10.6276 0.72859C10.7454 0.846348 10.8115 1.00606 10.8115 1.17259V3.68426C10.8115 4.18386 10.6131 4.663 10.2598 5.01627C9.90651 5.36954 9.42738 5.56801 8.92777 5.56801H2.90605L3.72235 6.37802C3.7812 6.4364 3.82791 6.50584 3.85979 6.58236C3.89167 6.65888 3.90808 6.74095 3.90808 6.82384C3.90808 6.90674 3.89167 6.98881 3.85979 7.06532C3.82791 7.14184 3.7812 7.21129 3.72235 7.26966C3.66397 7.32852 3.59452 7.37523 3.51801 7.40711C3.44149 7.43899 3.35942 7.4554 3.27653 7.4554C3.19363 7.4554 3.11156 7.43899 3.03504 7.40711C2.95853 7.37523 2.88908 7.32852 2.83071 7.26966L0.946956 5.38591C0.88979 5.3262 0.844977 5.25578 0.815092 5.1787C0.75229 5.02583 0.75229 4.85436 0.815092 4.70149Z" fill="#844424"/>
</svg>
