<svg width="18" height="21" viewBox="0 0 18 21" fill="none" xmlns="http://www.w3.org/2000/svg">
<path d="M14.9999 5.5026H14.6499C14.8781 5.03537 14.9977 4.52259 14.9999 4.0026C15.0029 3.30593 14.7974 2.62429 14.4097 2.04543C14.022 1.46657 13.47 1.01698 12.8246 0.75454C12.1793 0.492094 11.4701 0.428803 10.7885 0.572813C10.1069 0.716823 9.48393 1.06154 8.99988 1.5626C8.51583 1.06154 7.89289 0.716823 7.21126 0.572813C6.52963 0.428803 5.82049 0.492094 5.17513 0.75454C4.52978 1.01698 3.97773 1.46657 3.59007 2.04543C3.2024 2.62429 2.99685 3.30593 2.99988 4.0026C3.00201 4.52259 3.12166 5.03537 3.34988 5.5026H2.99988C2.20423 5.5026 1.44117 5.81867 0.878558 6.38128C0.315949 6.94389 -0.00012207 7.70695 -0.00012207 8.5026V10.5026C-0.00012207 10.7678 0.105235 11.0222 0.292771 11.2097C0.480307 11.3972 0.734661 11.5026 0.999878 11.5026H1.99988V17.5026C1.99988 18.2983 2.31595 19.0613 2.87856 19.6239C3.44117 20.1865 4.20423 20.5026 4.99988 20.5026H12.9999C13.7955 20.5026 14.5586 20.1865 15.1212 19.6239C15.6838 19.0613 15.9999 18.2983 15.9999 17.5026V11.5026H16.9999C17.2651 11.5026 17.5194 11.3972 17.707 11.2097C17.8945 11.0222 17.9999 10.7678 17.9999 10.5026V8.5026C17.9999 7.70695 17.6838 6.94389 17.1212 6.38128C16.5586 5.81867 15.7955 5.5026 14.9999 5.5026ZM7.99988 18.5026H4.99988C4.73466 18.5026 4.48031 18.3972 4.29277 18.2097C4.10524 18.0222 3.99988 17.7678 3.99988 17.5026V11.5026H7.99988V18.5026ZM7.99988 9.5026H1.99988V8.5026C1.99988 8.23738 2.10523 7.98303 2.29277 7.79549C2.48031 7.60796 2.73466 7.5026 2.99988 7.5026H7.99988V9.5026ZM7.99988 5.5026H6.49988C6.20321 5.5026 5.9132 5.41463 5.66652 5.24981C5.41985 5.08498 5.22759 4.85072 5.11406 4.57663C5.00053 4.30254 4.97082 4.00094 5.0287 3.70997C5.08658 3.41899 5.22944 3.15172 5.43922 2.94194C5.649 2.73216 5.91627 2.5893 6.20724 2.53142C6.49821 2.47355 6.79981 2.50325 7.0739 2.61678C7.34799 2.73031 7.58226 2.92257 7.74708 3.16925C7.9119 3.41592 7.99988 3.70593 7.99988 4.0026V5.5026ZM9.99988 4.0026C9.99988 3.70593 10.0879 3.41592 10.2527 3.16925C10.4175 2.92257 10.6518 2.73031 10.9259 2.61678C11.1999 2.50325 11.5015 2.47355 11.7925 2.53142C12.0835 2.5893 12.3508 2.73216 12.5605 2.94194C12.7703 3.15172 12.9132 3.41899 12.9711 3.70997C13.0289 4.00094 12.9992 4.30254 12.8857 4.57663C12.7722 4.85072 12.5799 5.08498 12.3332 5.24981C12.0866 5.41463 11.7965 5.5026 11.4999 5.5026H9.99988V4.0026ZM13.9999 17.5026C13.9999 17.7678 13.8945 18.0222 13.707 18.2097C13.5194 18.3972 13.2651 18.5026 12.9999 18.5026H9.99988V11.5026H13.9999V17.5026ZM15.9999 9.5026H9.99988V7.5026H14.9999C15.2651 7.5026 15.5194 7.60796 15.707 7.79549C15.8945 7.98303 15.9999 8.23738 15.9999 8.5026V9.5026Z" fill="#844424"/>
</svg>
