<svg width="22" height="21" viewBox="0 0 22 21" fill="none" xmlns="http://www.w3.org/2000/svg">
<path d="M20.9963 6.32123C21.0012 6.25799 21.0012 6.19447 20.9963 6.13123L18.9963 1.13123C18.9182 0.933589 18.7792 0.765969 18.5994 0.652689C18.4196 0.539408 18.2083 0.486357 17.9963 0.501233H3.99634C3.79606 0.501039 3.60034 0.560987 3.43452 0.673313C3.26871 0.785639 3.14044 0.945167 3.06634 1.13123L1.06634 6.13123C1.06152 6.19447 1.06152 6.25799 1.06634 6.32123C1.03311 6.3769 1.00945 6.43774 0.996338 6.50123C1.00747 7.19247 1.19756 7.86903 1.54808 8.46491C1.8986 9.06079 2.39758 9.55566 2.99634 9.90123V19.5012C2.99634 19.7664 3.10169 20.0208 3.28923 20.2083C3.47677 20.3959 3.73112 20.5012 3.99634 20.5012H17.9963C18.2616 20.5012 18.5159 20.3959 18.7034 20.2083C18.891 20.0208 18.9963 19.7664 18.9963 19.5012V9.94123C19.6009 9.59221 20.1036 9.09106 20.4544 8.48757C20.8053 7.88409 20.9921 7.19929 20.9963 6.50123C21.0057 6.4416 21.0057 6.38087 20.9963 6.32123ZM11.9963 18.5012H9.99634V14.5012H11.9963V18.5012ZM16.9963 18.5012H13.9963V13.5012C13.9963 13.236 13.891 12.9817 13.7034 12.7941C13.5159 12.6066 13.2616 12.5012 12.9963 12.5012H8.99634C8.73112 12.5012 8.47677 12.6066 8.28923 12.7941C8.1017 12.9817 7.99634 13.236 7.99634 13.5012V18.5012H4.99634V10.5012C5.56581 10.498 6.12802 10.3732 6.64539 10.1353C7.16275 9.89727 7.62334 9.55155 7.99634 9.12123C8.37171 9.54686 8.83334 9.88774 9.35059 10.1212C9.86783 10.3547 10.4288 10.4755 10.9963 10.4755C11.5638 10.4755 12.1248 10.3547 12.6421 10.1212C13.1593 9.88774 13.621 9.54686 13.9963 9.12123C14.3693 9.55155 14.8299 9.89727 15.3473 10.1353C15.8647 10.3732 16.4269 10.498 16.9963 10.5012V18.5012ZM16.9963 8.50123C16.4659 8.50123 15.9572 8.29052 15.5821 7.91545C15.2071 7.54037 14.9963 7.03167 14.9963 6.50123C14.9963 6.23602 14.891 5.98166 14.7034 5.79413C14.5159 5.60659 14.2616 5.50123 13.9963 5.50123C13.7311 5.50123 13.4768 5.60659 13.2892 5.79413C13.1017 5.98166 12.9963 6.23602 12.9963 6.50123C12.9963 7.03167 12.7856 7.54037 12.4106 7.91545C12.0355 8.29052 11.5268 8.50123 10.9963 8.50123C10.4659 8.50123 9.9572 8.29052 9.58212 7.91545C9.20705 7.54037 8.99634 7.03167 8.99634 6.50123C8.99634 6.23602 8.89098 5.98166 8.70344 5.79413C8.51591 5.60659 8.26155 5.50123 7.99634 5.50123C7.73112 5.50123 7.47677 5.60659 7.28923 5.79413C7.1017 5.98166 6.99634 6.23602 6.99634 6.50123C7.00619 6.76388 6.96421 7.02589 6.8728 7.27231C6.78139 7.51873 6.64234 7.74473 6.46358 7.93741C6.28483 8.13009 6.06988 8.28568 5.831 8.39529C5.59211 8.5049 5.33398 8.56638 5.07134 8.57623C4.5409 8.59612 4.0243 8.40449 3.63516 8.04348C3.44248 7.86473 3.28689 7.64977 3.17728 7.41089C3.06767 7.17201 3.00619 6.91388 2.99634 6.65123L4.67634 2.50123H17.3163L18.9963 6.65123C18.9584 7.15525 18.7311 7.62622 18.3601 7.96944C17.989 8.31265 17.5018 8.50266 16.9963 8.50123Z" fill="#844424"/>
</svg>
