<svg width="18" height="17" viewBox="0 0 18 17" fill="none" xmlns="http://www.w3.org/2000/svg">
<path d="M13.1526 2.86C12.9564 2.86 12.7646 2.91818 12.6015 3.02717C12.4384 3.13616 12.3112 3.29108 12.2362 3.47233C12.1611 3.65357 12.1414 3.85301 12.1797 4.04543C12.218 4.23784 12.3125 4.41458 12.4512 4.5533C12.5899 4.69202 12.7666 4.78649 12.9591 4.82476C13.1515 4.86304 13.3509 4.84339 13.5322 4.76832C13.7134 4.69324 13.8683 4.56611 13.9773 4.40299C14.0863 4.23987 14.1445 4.0481 14.1445 3.85191C14.1445 3.58884 14.04 3.33655 13.8539 3.15053C13.6679 2.96451 13.4156 2.86 13.1526 2.86ZM16.9549 4.86036C16.9388 4.17453 16.8104 3.49599 16.5746 2.85174C16.3645 2.30051 16.0374 1.80137 15.6158 1.38867C15.2065 0.964984 14.7062 0.639927 14.1527 0.438093C13.5102 0.195208 12.8309 0.0638211 12.1441 0.0495954C11.2679 -4.61894e-08 10.9869 0 8.73857 0C6.49024 0 6.2092 -4.61894e-08 5.33301 0.0495954C4.64624 0.0638211 3.96694 0.195208 3.3244 0.438093C2.77197 0.641971 2.27209 0.966748 1.86133 1.38867C1.43764 1.79798 1.11258 2.29829 0.910749 2.85174C0.667865 3.49428 0.536477 4.17358 0.522252 4.86036C0.472656 5.73654 0.472656 6.01758 0.472656 8.26591C0.472656 10.5142 0.472656 10.7953 0.522252 11.6715C0.536477 12.3582 0.667865 13.0375 0.910749 13.6801C1.11258 14.2335 1.43764 14.7338 1.86133 15.1431C2.27209 15.5651 2.77197 15.8898 3.3244 16.0937C3.96694 16.3366 4.64624 16.468 5.33301 16.4822C6.2092 16.5318 6.49024 16.5318 8.73857 16.5318C10.9869 16.5318 11.2679 16.5318 12.1441 16.4822C12.8309 16.468 13.5102 16.3366 14.1527 16.0937C14.7062 15.8919 15.2065 15.5668 15.6158 15.1431C16.0392 14.732 16.3666 14.2324 16.5746 13.6801C16.8104 13.0358 16.9388 12.3573 16.9549 11.6715C16.9549 10.7953 17.0045 10.5142 17.0045 8.26591C17.0045 6.01758 17.0045 5.73654 16.9549 4.86036ZM15.467 11.5723C15.461 12.097 15.366 12.6168 15.186 13.1097C15.054 13.4695 14.842 13.7945 14.566 14.0603C14.2979 14.3335 13.9736 14.5451 13.6155 14.6803C13.1226 14.8602 12.6027 14.9553 12.078 14.9613C11.2514 15.0026 10.9456 15.0109 8.77163 15.0109C6.5977 15.0109 6.29186 15.0109 5.46527 14.9613C4.92045 14.9715 4.37796 14.8876 3.86168 14.7133C3.51929 14.5712 3.20979 14.3602 2.95243 14.0934C2.67807 13.8278 2.46874 13.5025 2.34075 13.1428C2.13895 12.6428 2.02701 12.1112 2.01012 11.5723C2.01012 10.7457 1.96052 10.4398 1.96052 8.26591C1.96052 6.09198 1.96052 5.78614 2.01012 4.95955C2.01382 4.42313 2.11174 3.89155 2.29942 3.38902C2.44494 3.04013 2.6683 2.72912 2.95243 2.47977C3.20356 2.19556 3.51392 1.96985 3.86168 1.8185C4.36553 1.63669 4.89657 1.54166 5.4322 1.53746C6.25879 1.53746 6.56463 1.48786 8.73857 1.48786C10.9125 1.48786 11.2183 1.48786 12.0449 1.53746C12.5696 1.54348 13.0895 1.63851 13.5824 1.8185C13.958 1.95791 14.2952 2.18455 14.566 2.47977C14.8369 2.73368 15.0486 3.04411 15.186 3.38902C15.3697 3.89236 15.4648 4.42373 15.467 4.95955C15.5083 5.78614 15.5166 6.09198 15.5166 8.26591C15.5166 10.4398 15.5083 10.7457 15.467 11.5723ZM8.73857 4.0255C7.90025 4.02713 7.08122 4.27722 6.38498 4.74415C5.68873 5.21109 5.14651 5.87392 4.82684 6.64889C4.50716 7.42387 4.42436 8.27621 4.58891 9.09823C4.75346 9.92024 5.15797 10.675 5.75133 11.2672C6.34469 11.8595 7.10027 12.2625 7.92261 12.4254C8.74494 12.5884 9.59712 12.5039 10.3715 12.1827C11.1458 11.8616 11.8076 11.318 12.2732 10.6209C12.7388 9.92374 12.9872 9.10423 12.9872 8.26591C12.9883 7.70805 12.8791 7.15547 12.6659 6.63997C12.4527 6.12447 12.1396 5.65621 11.7448 5.26212C11.3499 4.86804 10.881 4.5559 10.3651 4.34368C9.84921 4.13145 9.29643 4.02332 8.73857 4.0255ZM8.73857 11.0185C8.19416 11.0185 7.66199 10.857 7.20933 10.5546C6.75668 10.2521 6.40388 9.82223 6.19554 9.31926C5.98721 8.8163 5.9327 8.26286 6.03891 7.72891C6.14512 7.19497 6.40727 6.70452 6.79222 6.31956C7.17717 5.93461 7.66763 5.67246 8.20157 5.56625C8.73551 5.46004 9.28896 5.51455 9.79192 5.72289C10.2949 5.93122 10.7248 6.28402 11.0272 6.73668C11.3297 7.18933 11.4911 7.72151 11.4911 8.26591C11.4911 8.62738 11.4199 8.98531 11.2816 9.31926C11.1433 9.65322 10.9405 9.95666 10.6849 10.2123C10.4293 10.4679 10.1259 10.6706 9.79192 10.8089C9.45797 10.9473 9.10004 11.0185 8.73857 11.0185Z" fill="#844424"/>
</svg>
