<svg width="10" height="12" viewBox="0 0 10 12" fill="none" xmlns="http://www.w3.org/2000/svg">
<path d="M3.50035 7.33545C3.42701 7.26325 3.33395 7.21433 3.23289 7.19486C3.13182 7.17538 3.02726 7.18622 2.93234 7.226C2.86767 7.24944 2.80895 7.28679 2.76032 7.33543C2.71168 7.38406 2.67433 7.44278 2.65089 7.50745C2.61709 7.58671 2.60347 7.67313 2.61124 7.75895C2.61902 7.84478 2.64795 7.92733 2.69546 7.99923C2.74296 8.07113 2.80755 8.13014 2.88344 8.17096C2.95934 8.21178 3.04417 8.23314 3.13035 8.23314C3.21652 8.23314 3.30135 8.21178 3.37725 8.17096C3.45314 8.13014 3.51773 8.07113 3.56523 7.99923C3.61274 7.92733 3.64167 7.84478 3.64945 7.75895C3.65723 7.67313 3.6436 7.58671 3.6098 7.50745C3.58343 7.44427 3.54641 7.3861 3.50035 7.33545ZM7.66985 7.33545C7.56908 7.24243 7.43697 7.19078 7.29983 7.19078C7.16269 7.19078 7.03058 7.24243 6.92981 7.33545C6.88374 7.38611 6.84672 7.4443 6.82036 7.50749C6.77969 7.60225 6.76837 7.70704 6.78788 7.80831C6.80738 7.90957 6.85681 8.00266 6.92976 8.07554C6.98042 8.1216 7.03861 8.15863 7.1018 8.18499C7.16418 8.21251 7.23161 8.22673 7.29979 8.22673C7.36797 8.22673 7.4354 8.21251 7.49778 8.18499C7.5609 8.15851 7.61907 8.1215 7.66981 8.07554C7.74277 8.00267 7.79219 7.90959 7.8117 7.80833C7.83122 7.70708 7.81991 7.6023 7.77926 7.50753C7.75291 7.44433 7.7159 7.38612 7.66985 7.33545ZM9.02464 9.73567C9.39362 9.44157 9.67526 9.05227 9.83916 8.6098C10.0031 8.16734 10.043 7.68851 9.95463 7.225L9.17285 3.0555C9.06077 2.45826 8.74351 1.91896 8.27593 1.53085C7.80835 1.14275 7.21985 0.930231 6.61218 0.930054H3.81793C3.21026 0.930237 2.62176 1.14276 2.15419 1.53087C1.68662 1.91898 1.36936 2.45828 1.25728 3.05552L0.475503 7.22502C0.387152 7.68853 0.427081 8.16736 0.590977 8.60982C0.754874 9.05229 1.03651 9.44159 1.40549 9.73569L0.677072 10.4641C0.627961 10.5124 0.588891 10.5699 0.562118 10.6333C0.535346 10.6967 0.521401 10.7648 0.521089 10.8336C0.520778 10.9024 0.534105 10.9706 0.560302 11.0343C0.5865 11.098 0.625047 11.1558 0.67372 11.2045C0.722392 11.2531 0.780224 11.2917 0.843877 11.3179C0.90753 11.3441 0.975742 11.3574 1.04457 11.3571C1.11341 11.3568 1.1815 11.3428 1.24491 11.3161C1.30832 11.2893 1.3658 11.2502 1.41403 11.2011L2.38821 10.2269C2.59979 10.2821 2.81748 10.3105 3.03615 10.3114H7.39397C7.61263 10.3105 7.83031 10.2822 8.04189 10.2269L9.01608 11.2011C9.11411 11.2974 9.24619 11.351 9.38358 11.3504C9.52098 11.3498 9.65257 11.2949 9.74972 11.1978C9.84687 11.1006 9.90173 10.969 9.90235 10.8316C9.90297 10.6943 9.84931 10.5622 9.75304 10.4641L9.02464 9.73567ZM2.28134 3.24792C2.34872 2.88958 2.53913 2.56604 2.81969 2.33316C3.10024 2.10028 3.45332 1.97269 3.81793 1.97243H6.61218C6.9768 1.97269 7.32987 2.10028 7.61042 2.33316C7.89098 2.56604 8.08139 2.88958 8.14878 3.24792L8.32946 4.21156C7.94035 4.65434 7.46129 5.00906 6.92425 5.25206C6.3872 5.49505 5.80452 5.62075 5.21506 5.62075C4.62559 5.62075 4.04291 5.49505 3.50587 5.25206C2.96882 5.00906 2.48976 4.65434 2.10065 4.21156L2.28134 3.24792ZM8.59667 8.70409C8.45024 8.88109 8.26648 9.02353 8.05856 9.1212C7.85063 9.21887 7.62369 9.26936 7.39397 9.26906H3.03615C2.80644 9.26898 2.57958 9.2183 2.37168 9.12061C2.16378 9.02293 1.97995 8.88065 1.83326 8.70389C1.68657 8.52712 1.58062 8.32021 1.52295 8.09787C1.46527 7.87552 1.45728 7.6432 1.49955 7.41742L1.87015 5.44089C2.80599 6.23019 3.9908 6.66312 5.21506 6.66312C6.43931 6.66312 7.62412 6.23019 8.55996 5.44089L8.93056 7.41742C8.97321 7.64324 8.9654 7.8757 8.90767 8.09814C8.84995 8.32058 8.74374 8.52751 8.59667 8.70409Z" fill="#844424"/>
</svg>
