<svg width="21" height="21" viewBox="0 0 21 21" fill="none" xmlns="http://www.w3.org/2000/svg">
<path d="M6.89907 14.2292C6.69751 14.3985 6.57082 14.6404 6.54648 14.9025C6.52215 15.1646 6.60212 15.4257 6.76907 15.6292C6.85302 15.7304 6.95612 15.8141 7.07246 15.8755C7.18881 15.9368 7.31612 15.9746 7.4471 15.9867C7.57807 15.9988 7.71014 15.9849 7.83575 15.9459C7.96135 15.9068 8.07802 15.8434 8.17907 15.7592C8.84755 15.2202 9.68037 14.9263 10.5391 14.9263C11.3978 14.9263 12.2306 15.2202 12.8991 15.7592C13.0001 15.8434 13.1168 15.9068 13.2424 15.9459C13.368 15.9849 13.5001 15.9988 13.631 15.9867C13.762 15.9746 13.8893 15.9368 14.0057 15.8755C14.122 15.8141 14.2251 15.7304 14.3091 15.6292C14.476 15.4257 14.556 15.1646 14.5317 14.9025C14.5073 14.6404 14.3806 14.3985 14.1791 14.2292C13.1472 13.3997 11.863 12.9476 10.5391 12.9476C9.21516 12.9476 7.93095 13.3997 6.89907 14.2292ZM7.53907 9.89917C7.73685 9.89917 7.93019 9.84052 8.09464 9.73064C8.25909 9.62076 8.38726 9.46458 8.46295 9.28185C8.53863 9.09913 8.55844 8.89806 8.51985 8.70408C8.48127 8.5101 8.38603 8.33192 8.24617 8.19206C8.10632 8.05221 7.92814 7.95697 7.73416 7.91838C7.54018 7.8798 7.33911 7.8996 7.15638 7.97529C6.97366 8.05098 6.81748 8.17915 6.7076 8.3436C6.59772 8.50805 6.53907 8.70139 6.53907 8.89917C6.53907 9.16439 6.64442 9.41874 6.83196 9.60628C7.0195 9.79381 7.27385 9.89917 7.53907 9.89917ZM10.5391 0.89917C8.56125 0.89917 6.62786 1.48566 4.98336 2.58447C3.33887 3.68329 2.05715 5.24507 1.30027 7.07234C0.543395 8.8996 0.345362 10.9103 0.731214 12.8501C1.11707 14.7899 2.06947 16.5717 3.468 17.9702C4.86652 19.3688 6.64835 20.3212 8.58816 20.707C10.528 21.0929 12.5386 20.8948 14.3659 20.138C16.1932 19.3811 17.7549 18.0994 18.8538 16.4549C19.9526 14.8104 20.5391 12.877 20.5391 10.8992C20.5391 9.58595 20.2804 8.28559 19.7779 7.07234C19.2753 5.85908 18.5387 4.75669 17.6101 3.8281C16.6815 2.89952 15.5792 2.16292 14.3659 1.66037C13.1526 1.15783 11.8523 0.89917 10.5391 0.89917V0.89917ZM10.5391 18.8992C8.95682 18.8992 7.4101 18.43 6.0945 17.5509C4.77891 16.6719 3.75353 15.4224 3.14803 13.9606C2.54253 12.4988 2.3841 10.8903 2.69279 9.33845C3.00147 7.7866 3.76339 6.36114 4.88221 5.24232C6.00103 4.1235 7.4265 3.36157 8.97834 3.05289C10.5302 2.74421 12.1387 2.90263 13.6005 3.50813C15.0623 4.11363 16.3118 5.13901 17.1908 6.45461C18.0699 7.7702 18.5391 9.31692 18.5391 10.8992C18.5391 13.0209 17.6962 15.0557 16.1959 16.556C14.6956 18.0563 12.6608 18.8992 10.5391 18.8992V18.8992ZM13.5391 7.89917C13.3413 7.89917 13.1479 7.95782 12.9835 8.0677C12.819 8.17758 12.6909 8.33376 12.6152 8.51649C12.5395 8.69921 12.5197 8.90028 12.5583 9.09426C12.5969 9.28824 12.6921 9.46642 12.832 9.60628C12.9718 9.74613 13.15 9.84137 13.344 9.87996C13.538 9.91854 13.739 9.89874 13.9218 9.82305C14.1045 9.74736 14.2607 9.61919 14.3705 9.45474C14.4804 9.29029 14.5391 9.09695 14.5391 8.89917C14.5391 8.63395 14.4337 8.3796 14.2462 8.19206C14.0586 8.00453 13.8043 7.89917 13.5391 7.89917Z" fill="#844424"/>
</svg>
