<svg width="47" height="47" viewBox="0 0 47 47" fill="none" xmlns="http://www.w3.org/2000/svg">
<circle cx="23.2434" cy="23.6763" r="23.0825" fill="#FFF3EE"/>
<path d="M22.0136 20.5217L19.309 17.9047C19.1392 17.7404 18.8759 17.7218 18.6847 17.8608L18.133 18.262L16.1363 15.5157L17.6065 14.4468C17.7165 14.3668 17.788 14.2444 17.8037 14.1093C17.8193 13.9742 17.7778 13.8387 17.6889 13.7357L14.8017 10.3864C14.4883 10.0229 14.033 9.81433 13.5526 9.81433C13.2025 9.81433 12.8675 9.92328 12.5839 10.1295L11.321 11.0478C10.6329 11.548 10.4399 12.5095 10.8815 13.2367L13.1772 17.0159C13.2479 17.1321 13.3639 17.2134 13.4972 17.2402C13.529 17.2466 13.5611 17.2497 13.593 17.2497C13.695 17.2497 13.7953 17.2176 13.8791 17.1566L15.3492 16.0878L17.3459 18.834L16.7942 19.2352C16.6031 19.3742 16.5394 19.6304 16.6434 19.8426L18.2988 23.2225C18.362 23.3515 18.479 23.446 18.6185 23.4806C18.6572 23.4902 18.6965 23.495 18.7357 23.495C18.8375 23.495 18.9378 23.463 19.0218 23.402L21.9614 21.2647C22.0777 21.1802 22.1506 21.0487 22.1607 20.9054C22.1707 20.762 22.1168 20.6216 22.0136 20.5217ZM15.1709 15.0146C15.1708 15.0147 15.1706 15.0147 15.1705 15.0149C15.1704 15.0149 15.1703 15.0151 15.1702 15.0151L13.7344 16.0591L11.7131 12.7316C11.5321 12.4337 11.6112 12.0397 11.8931 11.8348L13.1561 10.9165C13.2722 10.832 13.4094 10.7874 13.5526 10.7874C13.7496 10.7874 13.9363 10.8728 14.0648 11.0218L16.6067 13.9707L15.1709 15.0146ZM18.9178 22.2745L17.6969 19.7817L18.9261 18.8881L20.9208 20.8182L18.9178 22.2745Z" fill="#844424"/>
<path d="M35.3555 21.5023C35.2192 21.5023 34.8045 21.5023 34.4514 20.7256C34.2386 20.2571 34.1744 19.7694 34.1739 19.7655C34.1437 19.5218 33.9367 19.3387 33.6911 19.3387C33.4455 19.3387 33.2385 19.5218 33.2083 19.7655C33.2061 19.7829 32.967 21.5022 32.0267 21.5022C31.7581 21.5022 31.5403 21.72 31.5403 21.9887C31.5403 22.2574 31.758 22.4752 32.0267 22.4752C32.163 22.4752 32.5778 22.4752 32.9308 23.2519C33.1419 23.7162 33.2067 24.1996 33.2084 24.2127C33.2389 24.4561 33.4458 24.6388 33.6911 24.6388C33.9367 24.6388 34.1438 24.4557 34.1739 24.212C34.1761 24.1946 34.4152 22.4753 35.3555 22.4753C35.6242 22.4753 35.842 22.2575 35.842 21.9888C35.842 21.7201 35.6242 21.5023 35.3555 21.5023ZM33.6911 22.5993C33.5488 22.3426 33.3925 22.143 33.23 21.9887C33.3924 21.8346 33.5488 21.635 33.6911 21.3782C33.8333 21.6349 33.9898 21.8346 34.1522 21.9887C33.9897 22.1429 33.8333 22.3424 33.6911 22.5993Z" fill="#844424"/>
<path d="M26.8725 17.7684C26.7361 17.7684 26.3215 17.7684 25.9685 16.9916C25.7555 16.5232 25.6915 16.0355 25.6909 16.0315C25.6608 15.7882 25.4542 15.6058 25.2091 15.6053C25.2087 15.6053 25.2084 15.6053 25.2081 15.6053C24.9633 15.6053 24.7565 15.7877 24.7255 16.0306C24.7249 16.0355 24.6608 16.5233 24.4479 16.9916C24.0948 17.7684 23.6801 17.7684 23.5438 17.7684C23.2751 17.7684 23.0574 17.9862 23.0574 18.2549C23.0574 18.5235 23.2751 18.7413 23.5438 18.7413C23.6802 18.7413 24.0949 18.7413 24.4479 19.518C24.659 19.9822 24.7238 20.4656 24.7255 20.4788C24.756 20.7217 24.9624 20.9038 25.2073 20.9043C25.2076 20.9043 25.208 20.9043 25.2083 20.9043C25.453 20.9043 25.6599 20.722 25.6909 20.479C25.6915 20.4742 25.7556 19.9864 25.9685 19.518C26.3215 18.7413 26.7362 18.7413 26.8725 18.7413C27.1412 18.7413 27.3589 18.5234 27.3589 18.2548C27.3589 17.9862 27.1411 17.7684 26.8725 17.7684ZM25.2083 18.8654C25.066 18.6085 24.9097 18.409 24.7472 18.2548C24.9096 18.1006 25.066 17.9011 25.2083 17.6442C25.3505 17.9011 25.5069 18.1006 25.6694 18.2548C25.507 18.409 25.3505 18.6085 25.2083 18.8654Z" fill="#844424"/>
<path d="M15.3391 28.4651C15.2028 28.4651 14.7881 28.4651 14.435 27.6883C14.2222 27.2199 14.158 26.7322 14.1575 26.7282C14.1274 26.4849 13.9208 26.3025 13.6756 26.302C13.4291 26.2999 13.2231 26.4841 13.1921 26.7273C13.1914 26.7322 13.1274 27.2199 12.9144 27.6883C12.5614 28.4651 12.1467 28.4651 12.0104 28.4651C11.7417 28.4651 11.5239 28.6829 11.5239 28.9515C11.5239 29.2203 11.7417 29.438 12.0104 29.438C12.1467 29.438 12.5614 29.438 12.9144 30.2148C13.1255 30.6791 13.1903 31.1624 13.1921 31.1756C13.2225 31.4188 13.4294 31.6016 13.6748 31.6016C13.9204 31.6016 14.1274 31.4186 14.1576 31.1749C14.1597 31.1575 14.3989 29.438 15.3391 29.438C15.6078 29.438 15.8256 29.2202 15.8256 28.9515C15.8256 28.6829 15.6078 28.4651 15.3391 28.4651ZM13.6748 29.5621C13.5325 29.3053 13.3762 29.1058 13.2137 28.9515C13.3762 28.7974 13.5325 28.5978 13.6748 28.341C13.817 28.5977 13.9734 28.7973 14.1359 28.9515C13.9734 29.1058 13.817 29.3053 13.6748 29.5621Z" fill="#844424"/>
<path d="M15.3391 28.4651C15.2028 28.4651 14.7881 28.4651 14.435 27.6883C14.2222 27.2199 14.158 26.7322 14.1575 26.7282C14.1274 26.4849 13.9208 26.3025 13.6756 26.302C13.4291 26.2999 13.2231 26.4841 13.1921 26.7273C13.1914 26.7322 13.1274 27.2199 12.9144 27.6883C12.5614 28.4651 12.1467 28.4651 12.0104 28.4651C11.7417 28.4651 11.5239 28.6829 11.5239 28.9515C11.5239 29.2203 11.7417 29.438 12.0104 29.438C12.1467 29.438 12.5614 29.438 12.9144 30.2148C13.1255 30.6791 13.1903 31.1624 13.1921 31.1756C13.2225 31.4188 13.4294 31.6016 13.6748 31.6016C13.9204 31.6016 14.1274 31.4186 14.1576 31.1749C14.1597 31.1575 14.3989 29.438 15.3391 29.438C15.6078 29.438 15.8256 29.2202 15.8256 28.9515C15.8256 28.6829 15.6078 28.4651 15.3391 28.4651ZM13.6748 29.5621C13.5325 29.3053 13.3762 29.1058 13.2137 28.9515C13.3762 28.7974 13.5325 28.5978 13.6748 28.341C13.817 28.5977 13.9734 28.7973 14.1359 28.9515C13.9734 29.1058 13.817 29.3053 13.6748 29.5621Z" fill="#844424"/>
<path d="M35.1942 36.9722L34.0052 29.8061C34.0038 29.793 34.0013 29.7803 33.9988 29.7676L33.5023 26.7778C33.4633 26.5431 33.2604 26.371 33.0224 26.371C32.4098 26.371 31.8312 26.6391 31.435 27.1064C31.157 27.4342 30.9911 27.8345 30.9511 28.2529C30.6163 28.5112 30.3332 28.8214 30.1087 29.1667L30.0737 28.9562C30.0737 28.9548 30.0739 28.9534 30.0739 28.9519C30.0739 28.9121 30.0691 28.8733 30.0601 28.8362L29.5679 25.8697C29.5289 25.635 29.3259 25.4629 29.0879 25.4629C28.4753 25.4629 27.8967 25.731 27.5005 26.1982C27.2337 26.513 27.0701 26.8948 27.022 27.295C26.6794 27.556 26.3902 27.8707 26.1617 28.2219L25.4238 23.7744C25.3848 23.5396 25.1819 23.3676 24.9439 23.3676C24.3313 23.3676 23.7527 23.6356 23.3565 24.1029C23.0983 24.4075 22.937 24.7748 22.8832 25.1608C22.538 25.4229 22.2468 25.7393 22.0171 26.0926L21.9801 25.8698C21.9412 25.6351 21.7382 25.463 21.5003 25.463C20.8877 25.463 20.3091 25.7311 19.9129 26.1983C19.8217 26.3059 19.743 26.4216 19.6764 26.5429C19.0986 26.5687 18.5583 26.8322 18.1823 27.2757C17.7862 27.743 17.6164 28.3577 17.7167 28.962L19.0721 37.1314C19.1111 37.3661 19.3141 37.5382 19.552 37.5382H23.3424H23.3432H27.1327H27.1336H30.9231H30.9238H34.7142C34.8571 37.5382 34.9928 37.4753 35.0853 37.3663C35.1778 37.2573 35.2177 37.1132 35.1942 36.9722ZM32.1771 27.7356C32.2984 27.5925 32.4519 27.4845 32.6224 27.4185L32.9468 29.3737H32.052L31.9292 28.6336C31.9235 28.5991 31.9203 28.5647 31.9178 28.5302C31.9171 28.5207 31.9164 28.5112 31.9158 28.5013C31.9034 28.2235 31.995 27.9504 32.1771 27.7356ZM28.2427 26.8275C28.364 26.6844 28.5174 26.5764 28.6879 26.5105L29.0123 28.4656H28.1176L27.9947 27.7255C27.9889 27.6905 27.9855 27.6554 27.9831 27.6203C27.9822 27.608 27.9818 27.5956 27.9814 27.5832C27.9716 27.309 28.0628 27.0397 28.2427 26.8275ZM24.0986 24.7321C24.2199 24.589 24.3733 24.4811 24.5438 24.4151L24.8682 26.3702H23.9734C23.9734 26.3702 23.8408 25.5564 23.8384 25.5195C23.8376 25.5073 23.8376 25.495 23.8372 25.4827C23.8288 25.2103 23.9199 24.943 24.0986 24.7321ZM20.6551 26.8275C20.7764 26.6844 20.9298 26.5764 21.1003 26.5105L21.4247 28.4656H20.53C20.53 28.4656 20.3966 27.6475 20.3943 27.6086C20.3942 27.6067 20.394 27.6047 20.3939 27.6028C20.3788 27.3218 20.4709 27.0448 20.6551 26.8275ZM19.9645 36.5653V36.5654L18.6766 28.8029C18.6232 28.481 18.7136 28.1538 18.9245 27.9049C19.0575 27.7481 19.229 27.6333 19.4194 27.57C19.4195 27.5766 19.4203 27.5831 19.4205 27.5897C19.4247 27.7661 19.6377 29.0317 19.6377 29.0317C19.6571 29.149 19.7177 29.2507 19.803 29.3231C19.8884 29.3955 19.9987 29.4385 20.1176 29.4385H21.5862L22.7686 36.5653H19.9645ZM23.7557 36.5652L22.4829 28.8945C22.4825 28.8905 22.4816 28.8868 22.481 28.8828L22.4224 28.5301C22.3027 27.7617 22.519 26.9908 22.9924 26.4012L23.0811 26.9362C23.1201 27.1709 23.3231 27.343 23.561 27.343H25.0297L25.6023 30.7945C25.605 30.8118 25.607 30.829 25.61 30.8463L26.5588 36.5652H23.7557ZM27.5461 36.5654L26.565 30.6521C26.4477 29.8838 26.6661 29.1137 27.1413 28.5257L27.2252 29.0317C27.2642 29.2664 27.4672 29.4385 27.7052 29.4385H29.1675L29.5516 31.7531C29.5535 31.7656 29.555 31.7782 29.5571 31.7908L30.3493 36.5654H27.5461ZM31.3362 36.5653L30.5133 31.606C30.3934 30.8383 30.6097 30.0669 31.0829 29.4769L31.1475 29.8661L31.1596 29.9397C31.1986 30.1744 31.4016 30.3465 31.6396 30.3465H33.1085L34.1403 36.5653H31.3362V36.5653Z" fill="#844424"/>
</svg>
