<svg width="47" height="47" viewBox="0 0 47 47" fill="none" xmlns="http://www.w3.org/2000/svg">
<circle cx="23.2434" cy="23.1763" r="23.0825" fill="#FFF3EE"/>
<path d="M37.7386 12.0428C37.5464 12.0428 36.9616 12.0428 36.4637 10.9474C36.1635 10.2869 36.073 9.59907 36.0724 9.59349C36.0298 9.25041 35.7386 8.99315 35.3927 8.99246C35.0451 8.9894 34.7547 9.24918 34.7108 9.5922C34.7099 9.59907 34.6196 10.2869 34.3193 10.9474C33.8215 12.0428 33.2367 12.0428 33.0444 12.0428C32.6655 12.0428 32.3584 12.35 32.3584 12.7289C32.3584 13.1078 32.6655 13.4149 33.0444 13.4149C33.2366 13.4149 33.8215 13.4149 34.3193 14.5103C34.617 15.1652 34.7084 15.8467 34.7108 15.8652C34.7538 16.2083 35.0456 16.466 35.3916 16.466C35.7379 16.466 36.0299 16.208 36.0724 15.8642C36.0754 15.8397 36.4127 13.4149 37.7387 13.4149C38.1176 13.4149 38.4247 13.1078 38.4247 12.7289C38.4247 12.35 38.1175 12.0428 37.7386 12.0428ZM35.3916 13.5899C35.191 13.2278 34.9705 12.9463 34.7413 12.7289C34.9705 12.5115 35.191 12.2301 35.3916 11.8678C35.5922 12.2299 35.8127 12.5114 36.0419 12.7289C35.8127 12.9463 35.5922 13.2278 35.3916 13.5899Z" fill="#844424"/>
<path d="M32.9176 7.04981C32.7734 7.04981 32.3346 7.04981 31.961 6.22794C31.7358 5.73236 31.6679 5.21626 31.6674 5.21208C31.6355 4.95466 31.417 4.76164 31.1575 4.76113C30.8967 4.75884 30.6788 4.95375 30.6459 5.21111C30.6452 5.21626 30.5774 5.73236 30.3521 6.22794C29.9786 7.04981 29.5398 7.04981 29.3956 7.04981C29.1113 7.04981 28.8809 7.28024 28.8809 7.56453C28.8809 7.84887 29.1113 8.07925 29.3956 8.07925C29.5398 8.07925 29.9786 8.07925 30.3521 8.90111C30.5755 9.39246 30.644 9.9038 30.6459 9.91772C30.6781 10.1751 30.8971 10.3685 31.1566 10.3685C31.4165 10.3685 31.6356 10.1749 31.6675 9.91697C31.6697 9.89858 31.9228 8.07925 32.9177 8.07925C33.2019 8.07925 33.4324 7.84881 33.4324 7.56453C33.4324 7.28024 33.2019 7.04981 32.9176 7.04981ZM31.1566 8.21056C31.0061 7.93888 30.8407 7.7277 30.6687 7.56453C30.8407 7.40147 31.0061 7.19029 31.1566 6.91849C31.3072 7.19018 31.4726 7.40136 31.6446 7.56453C31.4726 7.7277 31.3072 7.93888 31.1566 8.21056Z" fill="#844424"/>
<circle cx="23.2435" cy="23.1762" r="11.212" stroke="#844424" stroke-width="1.5"/>
<path d="M20.322 23.1764C20.322 21.7915 19.1993 20.6688 17.8144 20.6688C16.4296 20.6688 15.3069 21.7915 15.3069 23.1764" stroke="#844424" stroke-width="1.5"/>
<path d="M31.2561 23.1764C31.2561 21.7915 30.1334 20.6688 28.7485 20.6688C27.3636 20.6688 26.241 21.7915 26.241 23.1764" stroke="#844424" stroke-width="1.5"/>
<path d="M26.1 26.6032C26.1 28.1808 24.8211 29.4597 23.2435 29.4597C21.6659 29.4597 20.387 28.1808 20.387 26.6032" stroke="#844424" stroke-width="1.5"/>
</svg>
