<svg width="16" height="19" viewBox="0 0 16 19" fill="none" xmlns="http://www.w3.org/2000/svg">
<path d="M5.19036 7.62697H6.12687C6.37525 7.62697 6.61346 7.5283 6.78909 7.35267C6.96472 7.17704 7.06339 6.93884 7.06339 6.69046C7.06339 6.44208 6.96472 6.20388 6.78909 6.02825C6.61346 5.85262 6.37525 5.75395 6.12687 5.75395H5.19036C4.94199 5.75395 4.70378 5.85262 4.52815 6.02825C4.35252 6.20388 4.25385 6.44208 4.25385 6.69046C4.25385 6.93884 4.35252 7.17704 4.52815 7.35267C4.70378 7.5283 4.94199 7.62697 5.19036 7.62697ZM5.19036 9.49999C4.94199 9.49999 4.70378 9.59866 4.52815 9.77429C4.35252 9.94992 4.25385 10.1881 4.25385 10.4365C4.25385 10.6849 4.35252 10.9231 4.52815 11.0987C4.70378 11.2743 4.94199 11.373 5.19036 11.373H10.8094C11.0578 11.373 11.296 11.2743 11.4716 11.0987C11.6473 10.9231 11.7459 10.6849 11.7459 10.4365C11.7459 10.1881 11.6473 9.94992 11.4716 9.77429C11.296 9.59866 11.0578 9.49999 10.8094 9.49999H5.19036ZM15.492 6.63427C15.4822 6.54824 15.4634 6.46348 15.4358 6.38141V6.29713C15.3908 6.20083 15.3307 6.11232 15.2579 6.0349L9.63879 0.415841C9.56137 0.342995 9.47286 0.282932 9.37657 0.237904C9.34861 0.233933 9.32024 0.233933 9.29228 0.237904C9.19714 0.183344 9.09208 0.148321 8.98323 0.134888H3.31734C2.57221 0.134888 1.85759 0.430891 1.33071 0.95778C0.803816 1.48467 0.507813 2.19928 0.507812 2.94442V16.0556C0.507812 16.8007 0.803816 17.5153 1.33071 18.0422C1.85759 18.5691 2.57221 18.8651 3.31734 18.8651H12.6824C13.4276 18.8651 14.1422 18.5691 14.6691 18.0422C15.196 17.5153 15.492 16.8007 15.492 16.0556V6.69046C15.492 6.69046 15.492 6.69046 15.492 6.63427ZM9.87292 3.32839L12.2985 5.75395H10.8094C10.561 5.75395 10.3228 5.65528 10.1472 5.47965C9.97158 5.30402 9.87292 5.06582 9.87292 4.81744V3.32839ZM13.619 16.0556C13.619 16.3039 13.5203 16.5421 13.3447 16.7178C13.169 16.8934 12.9308 16.9921 12.6824 16.9921H3.31734C3.06897 16.9921 2.83076 16.8934 2.65513 16.7178C2.4795 16.5421 2.38083 16.3039 2.38083 16.0556V2.94442C2.38083 2.69604 2.4795 2.45784 2.65513 2.28221C2.83076 2.10658 3.06897 2.00791 3.31734 2.00791H7.9999V4.81744C7.9999 5.56257 8.2959 6.27719 8.82279 6.80408C9.34968 7.33097 10.0643 7.62697 10.8094 7.62697H13.619V16.0556ZM10.8094 13.246H5.19036C4.94199 13.246 4.70378 13.3447 4.52815 13.5203C4.35252 13.696 4.25385 13.9342 4.25385 14.1825C4.25385 14.4309 4.35252 14.6691 4.52815 14.8448C4.70378 15.0204 4.94199 15.1191 5.19036 15.1191H10.8094C11.0578 15.1191 11.296 15.0204 11.4716 14.8448C11.6473 14.6691 11.7459 14.4309 11.7459 14.1825C11.7459 13.9342 11.6473 13.696 11.4716 13.5203C11.296 13.3447 11.0578 13.246 10.8094 13.246Z" fill="#844424"/>
</svg>
