<svg width="47" height="47" viewBox="0 0 47 47" fill="none" xmlns="http://www.w3.org/2000/svg">
<circle cx="23.2434" cy="23.6273" r="23.0825" fill="#FFF3EE"/>
<path d="M25.0947 30.0049L26.778 26.2131C26.7972 26.1698 26.8314 26.1349 26.8742 26.1147L34.0113 22.7571C34.0827 22.7235 34.1688 22.7346 34.2203 22.7944C34.7674 23.4307 34.4971 24.8397 30.2906 26.5659C30.1983 26.6038 30.1441 26.7061 30.1821 26.7984C30.5309 27.6446 31.8517 28.5063 34.8897 26.185C34.922 26.1603 34.947 26.1251 34.959 26.0862L36.5637 20.883C36.6712 20.5344 36.817 20.1933 37.0635 19.9245C37.5278 19.4184 38.2432 18.9417 38.9129 19.3808C38.9776 19.4232 39.0034 19.5041 38.984 19.579L36.9473 27.445C36.9326 27.5017 36.8934 27.549 36.8403 27.5739L30.7068 30.4562C30.6582 30.479 30.621 30.5207 30.6039 30.5716L29.5668 33.6476" stroke="#844424" stroke-width="1.18231" stroke-linecap="round"/>
<path d="M21.3921 30.0049L19.7088 26.2131C19.6896 26.1698 19.6554 26.1349 19.6126 26.1147L12.4755 22.7571C12.4041 22.7235 12.318 22.7346 12.2666 22.7944C11.7194 23.4307 11.9897 24.8397 16.1962 26.5659C16.2885 26.6038 16.3427 26.7061 16.3047 26.7984C15.9559 27.6446 14.6351 28.5063 11.5971 26.185C11.5648 26.1603 11.5399 26.1251 11.5279 26.0862L9.92311 20.883C9.81561 20.5344 9.66987 20.1933 9.42329 19.9245C8.95903 19.4184 8.2436 18.9417 7.57389 19.3808C7.50919 19.4232 7.48339 19.5041 7.50279 19.579L9.53952 27.445C9.55421 27.5017 9.59341 27.549 9.64647 27.5739L15.78 30.4562C15.8286 30.479 15.8658 30.5207 15.8829 30.5716L16.92 33.6476" stroke="#844424" stroke-width="1.18231" stroke-linecap="round"/>
<path d="M23.2438 24.2479C25.2966 22.7083 29.82 19.1141 28.9072 15.9999C28.1133 13.2913 25.553 12.5358 23.2436 15.5601" stroke="#844424" stroke-width="1.44718" stroke-linecap="round"/>
<path d="M23.2433 24.2479C21.1904 22.7083 16.667 19.1141 17.5798 15.9999C18.3738 13.2913 20.9341 12.5358 23.2435 15.5601" stroke="#844424" stroke-width="1.44718" stroke-linecap="round"/>
</svg>
