<svg width="13" height="14" viewBox="0 0 13 14" fill="none" xmlns="http://www.w3.org/2000/svg">
<path d="M12.5186 3.94565C12.519 3.86477 12.5035 3.78461 12.473 3.70974C12.4424 3.63487 12.3973 3.56678 12.3404 3.50936L9.73493 0.90392C9.67751 0.846969 9.60942 0.801911 9.53455 0.771331C9.45968 0.740751 9.37951 0.725251 9.29864 0.725718C9.21777 0.725251 9.1376 0.740751 9.06273 0.771331C8.98787 0.801911 8.91977 0.846969 8.86235 0.90392L7.12335 2.64293L0.406972 9.3593C0.35002 9.41672 0.304963 9.48481 0.274383 9.55968C0.243803 9.63455 0.228302 9.71472 0.22877 9.79559V12.401C0.22877 12.564 0.293511 12.7203 0.40875 12.8355C0.523989 12.9508 0.680287 13.0155 0.84326 13.0155H3.4487C3.53468 13.0202 3.62069 13.0067 3.70114 12.976C3.78159 12.9453 3.8547 12.8981 3.91571 12.8373L10.5952 6.12094L12.3404 4.41266C12.3965 4.3531 12.4422 4.28456 12.4756 4.20988C12.4815 4.1609 12.4815 4.11138 12.4756 4.0624C12.4784 4.03379 12.4784 4.00497 12.4756 3.97637L12.5186 3.94565ZM3.19676 11.7865H1.45775V10.0475L7.55964 3.94565L9.29864 5.68465L3.19676 11.7865ZM10.1651 4.81822L8.42607 3.07921L9.29864 2.21278L11.0315 3.94565L10.1651 4.81822Z" fill="#844424"/>
</svg>
